<?xml version="1.0" encoding="utf-8" standalone="no"?>
<!DOCTYPE svg PUBLIC "-//W3C//DTD SVG 1.1//EN"
  "http://www.w3.org/Graphics/SVG/1.1/DTD/svg11.dtd">
<svg xmlns:xlink="http://www.w3.org/1999/xlink" width="632.5975pt" height="458.797656pt" viewBox="0 0 632.5975 458.797656" xmlns="http://www.w3.org/2000/svg" version="1.1">
 <metadata>
  <rdf:RDF xmlns:dc="http://purl.org/dc/elements/1.1/" xmlns:cc="http://creativecommons.org/ns#" xmlns:rdf="http://www.w3.org/1999/02/22-rdf-syntax-ns#">
   <cc:Work>
    <dc:type rdf:resource="http://purl.org/dc/dcmitype/StillImage"/>
    <dc:date>2026-06-07T20:59:36.495937</dc:date>
    <dc:format>image/svg+xml</dc:format>
    <dc:creator>
     <cc:Agent>
      <dc:title>Matplotlib v3.10.9, https://matplotlib.org/</dc:title>
     </cc:Agent>
    </dc:creator>
   </cc:Work>
  </rdf:RDF>
 </metadata>
 <defs>
  <style type="text/css">*{stroke-linejoin: round; stroke-linecap: butt}</style>
 </defs>
 <g id="figure_1">
  <g id="patch_1">
   <path d="M 0 458.797656 
L 632.5975 458.797656 
L 632.5975 0 
L 0 0 
z
" style="fill: #ffffff"/>
  </g>
  <g id="axes_1">
   <g id="patch_2">
    <path d="M 72.704562 99.103656 
L 73.838562 99.103656 
Q 80.642562 99.103656 80.642562 92.299656 
L 80.642562 85.495656 
Q 80.642562 78.691656 73.838562 78.691656 
L 72.704562 78.691656 
Q 65.900562 78.691656 65.900562 85.495656 
L 65.900562 92.299656 
Q 65.900562 99.103656 72.704562 99.103656 
z
" clip-path="url(#p5d38080d38)" style="fill: #d9e7f2; stroke: #4a6fa5; stroke-width: 1.4; stroke-linejoin: miter"/>
   </g>
   <g id="patch_3">
    <path d="M 87.068562 99.103656 
L 88.202562 99.103656 
Q 95.006562 99.103656 95.006562 92.299656 
L 95.006562 85.495656 
Q 95.006562 78.691656 88.202562 78.691656 
L 87.068562 78.691656 
Q 80.264562 78.691656 80.264562 85.495656 
L 80.264562 92.299656 
Q 80.264562 99.103656 87.068562 99.103656 
z
" clip-path="url(#p5d38080d38)" style="fill: #d9e7f2; stroke: #4a6fa5; stroke-width: 1.4; stroke-linejoin: miter"/>
   </g>
   <g id="patch_4">
    <path d="M 101.432562 99.103656 
L 102.566562 99.103656 
Q 109.370562 99.103656 109.370562 92.299656 
L 109.370562 85.495656 
Q 109.370562 78.691656 102.566562 78.691656 
L 101.432562 78.691656 
Q 94.628562 78.691656 94.628562 85.495656 
L 94.628562 92.299656 
Q 94.628562 99.103656 101.432562 99.103656 
z
" clip-path="url(#p5d38080d38)" style="fill: #d9e7f2; stroke: #4a6fa5; stroke-width: 1.4; stroke-linejoin: miter"/>
   </g>
   <g id="patch_5">
    <path d="M 115.796562 99.103656 
L 116.930562 99.103656 
Q 123.734562 99.103656 123.734562 92.299656 
L 123.734562 85.495656 
Q 123.734562 78.691656 116.930562 78.691656 
L 115.796562 78.691656 
Q 108.992563 78.691656 108.992563 85.495656 
L 108.992563 92.299656 
Q 108.992563 99.103656 115.796562 99.103656 
z
" clip-path="url(#p5d38080d38)" style="fill: #d9e7f2; stroke: #4a6fa5; stroke-width: 1.4; stroke-linejoin: miter"/>
   </g>
   <g id="patch_6">
    <path d="M 130.160563 99.103656 
L 131.294563 99.103656 
Q 138.098563 99.103656 138.098563 92.299656 
L 138.098563 85.495656 
Q 138.098563 78.691656 131.294563 78.691656 
L 130.160563 78.691656 
Q 123.356563 78.691656 123.356563 85.495656 
L 123.356563 92.299656 
Q 123.356563 99.103656 130.160563 99.103656 
z
" clip-path="url(#p5d38080d38)" style="fill: #d9e7f2; stroke: #4a6fa5; stroke-width: 1.4; stroke-linejoin: miter"/>
   </g>
   <g id="patch_7">
    <path d="M 144.524563 99.103656 
L 145.658563 99.103656 
Q 152.462562 99.103656 152.462562 92.299656 
L 152.462562 85.495656 
Q 152.462562 78.691656 145.658563 78.691656 
L 144.524563 78.691656 
Q 137.720562 78.691656 137.720562 85.495656 
L 137.720562 92.299656 
Q 137.720562 99.103656 144.524563 99.103656 
z
" clip-path="url(#p5d38080d38)" style="fill: #d9e7f2; stroke: #4a6fa5; stroke-width: 1.4; stroke-linejoin: miter"/>
   </g>
   <g id="patch_8">
    <path d="M 158.888563 99.103656 
L 160.022563 99.103656 
Q 166.826563 99.103656 166.826563 92.299656 
L 166.826563 85.495656 
Q 166.826563 78.691656 160.022563 78.691656 
L 158.888563 78.691656 
Q 152.084563 78.691656 152.084563 85.495656 
L 152.084563 92.299656 
Q 152.084563 99.103656 158.888563 99.103656 
z
" clip-path="url(#p5d38080d38)" style="fill: #d9e7f2; stroke: #4a6fa5; stroke-width: 1.4; stroke-linejoin: miter"/>
   </g>
   <g id="patch_9">
    <path d="M 173.252563 99.103656 
L 174.386563 99.103656 
Q 181.190562 99.103656 181.190562 92.299656 
L 181.190562 85.495656 
Q 181.190562 78.691656 174.386563 78.691656 
L 173.252563 78.691656 
Q 166.448563 78.691656 166.448563 85.495656 
L 166.448563 92.299656 
Q 166.448563 99.103656 173.252563 99.103656 
z
" clip-path="url(#p5d38080d38)" style="fill: #d9e7f2; stroke: #4a6fa5; stroke-width: 1.4; stroke-linejoin: miter"/>
   </g>
   <g id="patch_10">
    <path d="M 187.616563 99.103656 
L 188.750563 99.103656 
Q 195.554563 99.103656 195.554563 92.299656 
L 195.554563 85.495656 
Q 195.554563 78.691656 188.750563 78.691656 
L 187.616563 78.691656 
Q 180.812563 78.691656 180.812563 85.495656 
L 180.812563 92.299656 
Q 180.812563 99.103656 187.616563 99.103656 
z
" clip-path="url(#p5d38080d38)" style="fill: #d9e7f2; stroke: #4a6fa5; stroke-width: 1.4; stroke-linejoin: miter"/>
   </g>
   <g id="patch_11">
    <path d="M 201.980563 99.103656 
L 203.114563 99.103656 
Q 209.918563 99.103656 209.918563 92.299656 
L 209.918563 85.495656 
Q 209.918563 78.691656 203.114563 78.691656 
L 201.980563 78.691656 
Q 195.176563 78.691656 195.176563 85.495656 
L 195.176563 92.299656 
Q 195.176563 99.103656 201.980563 99.103656 
z
" clip-path="url(#p5d38080d38)" style="fill: #d9e7f2; stroke: #4a6fa5; stroke-width: 1.4; stroke-linejoin: miter"/>
   </g>
   <g id="patch_12">
    <path d="M 216.344562 99.103656 
L 217.478563 99.103656 
Q 224.282563 99.103656 224.282563 92.299656 
L 224.282563 85.495656 
Q 224.282563 78.691656 217.478563 78.691656 
L 216.344562 78.691656 
Q 209.540563 78.691656 209.540563 85.495656 
L 209.540563 92.299656 
Q 209.540563 99.103656 216.344562 99.103656 
z
" clip-path="url(#p5d38080d38)" style="fill: #d9e7f2; stroke: #4a6fa5; stroke-width: 1.4; stroke-linejoin: miter"/>
   </g>
   <g id="patch_13">
    <path d="M 230.708563 99.103656 
L 231.842563 99.103656 
Q 238.646563 99.103656 238.646563 92.299656 
L 238.646563 85.495656 
Q 238.646563 78.691656 231.842563 78.691656 
L 230.708563 78.691656 
Q 223.904562 78.691656 223.904562 85.495656 
L 223.904562 92.299656 
Q 223.904562 99.103656 230.708563 99.103656 
z
" clip-path="url(#p5d38080d38)" style="fill: #d9e7f2; stroke: #4a6fa5; stroke-width: 1.4; stroke-linejoin: miter"/>
   </g>
   <g id="patch_14">
    <path d="M 245.072563 99.103656 
L 246.206563 99.103656 
Q 253.010563 99.103656 253.010563 92.299656 
L 253.010563 85.495656 
Q 253.010563 78.691656 246.206563 78.691656 
L 245.072563 78.691656 
Q 238.268563 78.691656 238.268563 85.495656 
L 238.268563 92.299656 
Q 238.268563 99.103656 245.072563 99.103656 
z
" clip-path="url(#p5d38080d38)" style="fill: #d9e7f2; stroke: #4a6fa5; stroke-width: 1.4; stroke-linejoin: miter"/>
   </g>
   <g id="patch_15">
    <path d="M 259.436563 99.103656 
L 260.570563 99.103656 
Q 267.374563 99.103656 267.374563 92.299656 
L 267.374563 85.495656 
Q 267.374563 78.691656 260.570563 78.691656 
L 259.436563 78.691656 
Q 252.632563 78.691656 252.632563 85.495656 
L 252.632563 92.299656 
Q 252.632563 99.103656 259.436563 99.103656 
z
" clip-path="url(#p5d38080d38)" style="fill: #d9e7f2; stroke: #4a6fa5; stroke-width: 1.4; stroke-linejoin: miter"/>
   </g>
   <g id="patch_16">
    <path d="M 273.800563 99.103656 
L 274.934563 99.103656 
Q 281.738563 99.103656 281.738563 92.299656 
L 281.738563 85.495656 
Q 281.738563 78.691656 274.934563 78.691656 
L 273.800563 78.691656 
Q 266.996563 78.691656 266.996563 85.495656 
L 266.996563 92.299656 
Q 266.996563 99.103656 273.800563 99.103656 
z
" clip-path="url(#p5d38080d38)" style="fill: #d9e7f2; stroke: #4a6fa5; stroke-width: 1.4; stroke-linejoin: miter"/>
   </g>
   <g id="patch_17">
    <path d="M 288.164563 99.103656 
L 289.298563 99.103656 
Q 296.102563 99.103656 296.102563 92.299656 
L 296.102563 85.495656 
Q 296.102563 78.691656 289.298563 78.691656 
L 288.164563 78.691656 
Q 281.360563 78.691656 281.360563 85.495656 
L 281.360563 92.299656 
Q 281.360563 99.103656 288.164563 99.103656 
z
" clip-path="url(#p5d38080d38)" style="fill: #d9e7f2; stroke: #4a6fa5; stroke-width: 1.4; stroke-linejoin: miter"/>
   </g>
   <g id="patch_18">
    <path d="M 302.528563 99.103656 
L 303.662563 99.103656 
Q 310.466563 99.103656 310.466563 92.299656 
L 310.466563 85.495656 
Q 310.466563 78.691656 303.662563 78.691656 
L 302.528563 78.691656 
Q 295.724563 78.691656 295.724563 85.495656 
L 295.724563 92.299656 
Q 295.724563 99.103656 302.528563 99.103656 
z
" clip-path="url(#p5d38080d38)" style="fill: #d9e7f2; stroke: #4a6fa5; stroke-width: 1.4; stroke-linejoin: miter"/>
   </g>
   <g id="patch_19">
    <path d="M 316.892563 99.103656 
L 318.026563 99.103656 
Q 324.830563 99.103656 324.830563 92.299656 
L 324.830563 85.495656 
Q 324.830563 78.691656 318.026563 78.691656 
L 316.892563 78.691656 
Q 310.088563 78.691656 310.088563 85.495656 
L 310.088563 92.299656 
Q 310.088563 99.103656 316.892563 99.103656 
z
" clip-path="url(#p5d38080d38)" style="fill: #d9e7f2; stroke: #4a6fa5; stroke-width: 1.4; stroke-linejoin: miter"/>
   </g>
   <g id="patch_20">
    <path d="M 331.256563 99.103656 
L 332.390563 99.103656 
Q 339.194563 99.103656 339.194563 92.299656 
L 339.194563 85.495656 
Q 339.194563 78.691656 332.390563 78.691656 
L 331.256563 78.691656 
Q 324.452563 78.691656 324.452563 85.495656 
L 324.452563 92.299656 
Q 324.452563 99.103656 331.256563 99.103656 
z
" clip-path="url(#p5d38080d38)" style="fill: #d9e7f2; stroke: #4a6fa5; stroke-width: 1.4; stroke-linejoin: miter"/>
   </g>
   <g id="patch_21">
    <path d="M 345.620562 99.103656 
L 346.754563 99.103656 
Q 353.558562 99.103656 353.558562 92.299656 
L 353.558562 85.495656 
Q 353.558562 78.691656 346.754563 78.691656 
L 345.620562 78.691656 
Q 338.816562 78.691656 338.816562 85.495656 
L 338.816562 92.299656 
Q 338.816562 99.103656 345.620562 99.103656 
z
" clip-path="url(#p5d38080d38)" style="fill: #d9e7f2; stroke: #4a6fa5; stroke-width: 1.4; stroke-linejoin: miter"/>
   </g>
   <g id="patch_22">
    <path d="M 359.984562 99.103656 
L 361.118563 99.103656 
Q 367.922563 99.103656 367.922563 92.299656 
L 367.922563 85.495656 
Q 367.922563 78.691656 361.118563 78.691656 
L 359.984562 78.691656 
Q 353.180563 78.691656 353.180563 85.495656 
L 353.180563 92.299656 
Q 353.180563 99.103656 359.984562 99.103656 
z
" clip-path="url(#p5d38080d38)" style="fill: #d9e7f2; stroke: #4a6fa5; stroke-width: 1.4; stroke-linejoin: miter"/>
   </g>
   <g id="patch_23">
    <path d="M 374.348563 99.103656 
L 375.482563 99.103656 
Q 382.286563 99.103656 382.286563 92.299656 
L 382.286563 85.495656 
Q 382.286563 78.691656 375.482563 78.691656 
L 374.348563 78.691656 
Q 367.544563 78.691656 367.544563 85.495656 
L 367.544563 92.299656 
Q 367.544563 99.103656 374.348563 99.103656 
z
" clip-path="url(#p5d38080d38)" style="fill: #d9e7f2; stroke: #4a6fa5; stroke-width: 1.4; stroke-linejoin: miter"/>
   </g>
   <g id="patch_24">
    <path d="M 388.712562 99.103656 
L 389.846563 99.103656 
Q 396.650563 99.103656 396.650563 92.299656 
L 396.650563 85.495656 
Q 396.650563 78.691656 389.846563 78.691656 
L 388.712562 78.691656 
Q 381.908563 78.691656 381.908563 85.495656 
L 381.908563 92.299656 
Q 381.908563 99.103656 388.712562 99.103656 
z
" clip-path="url(#p5d38080d38)" style="fill: #d9e7f2; stroke: #4a6fa5; stroke-width: 1.4; stroke-linejoin: miter"/>
   </g>
   <g id="patch_25">
    <path d="M 403.076563 99.103656 
L 404.210563 99.103656 
Q 411.014563 99.103656 411.014563 92.299656 
L 411.014563 85.495656 
Q 411.014563 78.691656 404.210563 78.691656 
L 403.076563 78.691656 
Q 396.272563 78.691656 396.272563 85.495656 
L 396.272563 92.299656 
Q 396.272563 99.103656 403.076563 99.103656 
z
" clip-path="url(#p5d38080d38)" style="fill: #d9e7f2; stroke: #4a6fa5; stroke-width: 1.4; stroke-linejoin: miter"/>
   </g>
   <g id="patch_26">
    <path d="M 417.440563 99.103656 
L 418.574563 99.103656 
Q 425.378563 99.103656 425.378563 92.299656 
L 425.378563 85.495656 
Q 425.378563 78.691656 418.574563 78.691656 
L 417.440563 78.691656 
Q 410.636563 78.691656 410.636563 85.495656 
L 410.636563 92.299656 
Q 410.636563 99.103656 417.440563 99.103656 
z
" clip-path="url(#p5d38080d38)" style="fill: #d9e7f2; stroke: #4a6fa5; stroke-width: 1.4; stroke-linejoin: miter"/>
   </g>
   <g id="patch_27">
    <path d="M 431.804563 99.103656 
L 432.938563 99.103656 
Q 439.742563 99.103656 439.742563 92.299656 
L 439.742563 85.495656 
Q 439.742563 78.691656 432.938563 78.691656 
L 431.804563 78.691656 
Q 425.000563 78.691656 425.000563 85.495656 
L 425.000563 92.299656 
Q 425.000563 99.103656 431.804563 99.103656 
z
" clip-path="url(#p5d38080d38)" style="fill: #d9e7f2; stroke: #4a6fa5; stroke-width: 1.4; stroke-linejoin: miter"/>
   </g>
   <g id="patch_28">
    <path d="M 446.168563 99.103656 
L 447.302563 99.103656 
Q 454.106563 99.103656 454.106563 92.299656 
L 454.106563 85.495656 
Q 454.106563 78.691656 447.302563 78.691656 
L 446.168563 78.691656 
Q 439.364563 78.691656 439.364563 85.495656 
L 439.364563 92.299656 
Q 439.364563 99.103656 446.168563 99.103656 
z
" clip-path="url(#p5d38080d38)" style="fill: #d9e7f2; stroke: #4a6fa5; stroke-width: 1.4; stroke-linejoin: miter"/>
   </g>
   <g id="patch_29">
    <path d="M 460.532563 99.103656 
L 461.666563 99.103656 
Q 468.470563 99.103656 468.470563 92.299656 
L 468.470563 85.495656 
Q 468.470563 78.691656 461.666563 78.691656 
L 460.532563 78.691656 
Q 453.728563 78.691656 453.728563 85.495656 
L 453.728563 92.299656 
Q 453.728563 99.103656 460.532563 99.103656 
z
" clip-path="url(#p5d38080d38)" style="fill: #d9e7f2; stroke: #4a6fa5; stroke-width: 1.4; stroke-linejoin: miter"/>
   </g>
   <g id="patch_30">
    <path d="M 474.896563 99.103656 
L 476.030563 99.103656 
Q 482.834563 99.103656 482.834563 92.299656 
L 482.834563 85.495656 
Q 482.834563 78.691656 476.030563 78.691656 
L 474.896563 78.691656 
Q 468.092563 78.691656 468.092563 85.495656 
L 468.092563 92.299656 
Q 468.092563 99.103656 474.896563 99.103656 
z
" clip-path="url(#p5d38080d38)" style="fill: #d9e7f2; stroke: #4a6fa5; stroke-width: 1.4; stroke-linejoin: miter"/>
   </g>
   <g id="patch_31">
    <path d="M 489.260562 99.103656 
L 490.394563 99.103656 
Q 497.198563 99.103656 497.198563 92.299656 
L 497.198563 85.495656 
Q 497.198563 78.691656 490.394563 78.691656 
L 489.260562 78.691656 
Q 482.456563 78.691656 482.456563 85.495656 
L 482.456563 92.299656 
Q 482.456563 99.103656 489.260562 99.103656 
z
" clip-path="url(#p5d38080d38)" style="fill: #d9e7f2; stroke: #4a6fa5; stroke-width: 1.4; stroke-linejoin: miter"/>
   </g>
   <g id="patch_32">
    <path d="M 503.624563 99.103656 
L 504.758563 99.103656 
Q 511.562563 99.103656 511.562563 92.299656 
L 511.562563 85.495656 
Q 511.562563 78.691656 504.758563 78.691656 
L 503.624563 78.691656 
Q 496.820563 78.691656 496.820563 85.495656 
L 496.820563 92.299656 
Q 496.820563 99.103656 503.624563 99.103656 
z
" clip-path="url(#p5d38080d38)" style="fill: #d9e7f2; stroke: #4a6fa5; stroke-width: 1.4; stroke-linejoin: miter"/>
   </g>
   <g id="patch_33">
    <path d="M 517.988562 99.103656 
L 519.122563 99.103656 
Q 525.926563 99.103656 525.926563 92.299656 
L 525.926563 85.495656 
Q 525.926563 78.691656 519.122563 78.691656 
L 517.988562 78.691656 
Q 511.184563 78.691656 511.184563 85.495656 
L 511.184563 92.299656 
Q 511.184563 99.103656 517.988562 99.103656 
z
" clip-path="url(#p5d38080d38)" style="fill: #d9e7f2; stroke: #4a6fa5; stroke-width: 1.4; stroke-linejoin: miter"/>
   </g>
   <g id="patch_34">
    <path d="M 283.439563 178.483656 
L 316.703563 178.483656 
Q 323.507563 178.483656 323.507563 171.679656 
L 323.507563 157.315656 
Q 323.507563 150.511656 316.703563 150.511656 
L 283.439563 150.511656 
Q 276.635563 150.511656 276.635563 157.315656 
L 276.635563 171.679656 
Q 276.635563 178.483656 283.439563 178.483656 
z
" clip-path="url(#p5d38080d38)" style="fill: #7fa8d6; stroke: #2b4d7a; stroke-width: 1.4; stroke-linejoin: miter"/>
   </g>
   <g id="patch_35">
    <path d="M 75.539562 254.083656 
L 108.803562 254.083656 
Q 115.607563 254.083656 115.607563 247.279656 
L 115.607563 232.915656 
Q 115.607563 226.111656 108.803562 226.111656 
L 75.539562 226.111656 
Q 68.735562 226.111656 68.735562 232.915656 
L 68.735562 247.279656 
Q 68.735562 254.083656 75.539562 254.083656 
z
" clip-path="url(#p5d38080d38)" style="fill: #7fa8d6; stroke: #2b4d7a; stroke-width: 1.4; stroke-linejoin: miter"/>
   </g>
   <g id="patch_36">
    <path d="M 143.579563 254.083656 
L 176.843563 254.083656 
Q 183.647562 254.083656 183.647562 247.279656 
L 183.647562 232.915656 
Q 183.647562 226.111656 176.843563 226.111656 
L 143.579563 226.111656 
Q 136.775562 226.111656 136.775562 232.915656 
L 136.775562 247.279656 
Q 136.775562 254.083656 143.579563 254.083656 
z
" clip-path="url(#p5d38080d38)" style="fill: #7fa8d6; stroke: #2b4d7a; stroke-width: 1.4; stroke-linejoin: miter"/>
   </g>
   <g id="patch_37">
    <path d="M 211.619563 254.083656 
L 244.883563 254.083656 
Q 251.687563 254.083656 251.687563 247.279656 
L 251.687563 232.915656 
Q 251.687563 226.111656 244.883563 226.111656 
L 211.619563 226.111656 
Q 204.815562 226.111656 204.815562 232.915656 
L 204.815562 247.279656 
Q 204.815562 254.083656 211.619563 254.083656 
z
" clip-path="url(#p5d38080d38)" style="fill: #7fa8d6; stroke: #2b4d7a; stroke-width: 1.4; stroke-linejoin: miter"/>
   </g>
   <g id="patch_38">
    <path d="M 279.659563 254.083656 
L 312.923563 254.083656 
Q 319.727563 254.083656 319.727563 247.279656 
L 319.727563 232.915656 
Q 319.727563 226.111656 312.923563 226.111656 
L 279.659563 226.111656 
Q 272.855563 226.111656 272.855563 232.915656 
L 272.855563 247.279656 
Q 272.855563 254.083656 279.659563 254.083656 
z
" clip-path="url(#p5d38080d38)" style="fill: #7fa8d6; stroke: #2b4d7a; stroke-width: 1.4; stroke-linejoin: miter"/>
   </g>
   <g id="patch_39">
    <path d="M 347.699563 254.083656 
L 380.963563 254.083656 
Q 387.767563 254.083656 387.767563 247.279656 
L 387.767563 232.915656 
Q 387.767563 226.111656 380.963563 226.111656 
L 347.699563 226.111656 
Q 340.895563 226.111656 340.895563 232.915656 
L 340.895563 247.279656 
Q 340.895563 254.083656 347.699563 254.083656 
z
" clip-path="url(#p5d38080d38)" style="fill: #7fa8d6; stroke: #2b4d7a; stroke-width: 1.4; stroke-linejoin: miter"/>
   </g>
   <g id="patch_40">
    <path d="M 415.739563 254.083656 
L 449.003563 254.083656 
Q 455.807563 254.083656 455.807563 247.279656 
L 455.807563 232.915656 
Q 455.807563 226.111656 449.003563 226.111656 
L 415.739563 226.111656 
Q 408.935563 226.111656 408.935563 232.915656 
L 408.935563 247.279656 
Q 408.935563 254.083656 415.739563 254.083656 
z
" clip-path="url(#p5d38080d38)" style="fill: #7fa8d6; stroke: #2b4d7a; stroke-width: 1.4; stroke-linejoin: miter"/>
   </g>
   <g id="patch_41">
    <path d="M 136.019563 333.463656 
L 426.323563 333.463656 
Q 433.127563 333.463656 433.127563 326.659656 
L 433.127563 304.735656 
Q 433.127563 297.931656 426.323563 297.931656 
L 136.019563 297.931656 
Q 129.215563 297.931656 129.215563 304.735656 
L 129.215563 326.659656 
Q 129.215563 333.463656 136.019563 333.463656 
z
" clip-path="url(#p5d38080d38)" style="fill: #ffe9cc; stroke: #b7791f; stroke-width: 1.4; stroke-linejoin: miter"/>
   </g>
   <g id="patch_42">
    <path d="M 136.019563 410.953656 
L 426.323563 410.953656 
Q 433.127563 410.953656 433.127563 404.149656 
L 433.127563 378.445656 
Q 433.127563 371.641656 426.323563 371.641656 
L 136.019563 371.641656 
Q 129.215563 371.641656 129.215563 378.445656 
L 129.215563 404.149656 
Q 129.215563 410.953656 136.019563 410.953656 
z
" clip-path="url(#p5d38080d38)" style="fill: #f4b7a8; stroke: #aa3333; stroke-width: 1.4; stroke-linejoin: miter"/>
   </g>
   <g id="text_1">
    <!-- 32 lanes -->
    <g style="fill: #333333" transform="translate(11.341406 85.774172) scale(0.11 -0.11)">
     <defs>
      <path id="DejaVuSerif-33" d="M 622 4469 
Q 988 4606 1323 4678 
Q 1659 4750 1953 4750 
Q 2638 4750 3022 4454 
Q 3406 4159 3406 3634 
Q 3406 3213 3140 2930 
Q 2875 2647 2388 2547 
Q 2963 2466 3280 2130 
Q 3597 1794 3597 1259 
Q 3597 606 3158 257 
Q 2719 -91 1894 -91 
Q 1528 -91 1179 -12 
Q 831 66 488 225 
L 488 1131 
L 838 1131 
Q 869 681 1141 450 
Q 1413 219 1906 219 
Q 2384 219 2661 495 
Q 2938 772 2938 1253 
Q 2938 1803 2653 2086 
Q 2369 2369 1819 2369 
L 1522 2369 
L 1522 2688 
L 1678 2688 
Q 2225 2688 2498 2914 
Q 2772 3141 2772 3597 
Q 2772 4006 2547 4223 
Q 2322 4441 1900 4441 
Q 1478 4441 1245 4241 
Q 1013 4041 972 3647 
L 622 3647 
L 622 4469 
z
" transform="scale(0.015625)"/>
      <path id="DejaVuSerif-32" d="M 819 3553 
L 469 3553 
L 469 4384 
Q 803 4563 1142 4656 
Q 1481 4750 1806 4750 
Q 2534 4750 2956 4397 
Q 3378 4044 3378 3438 
Q 3378 2753 2422 1800 
Q 2347 1728 2309 1691 
L 1131 513 
L 3078 513 
L 3078 1088 
L 3444 1088 
L 3444 0 
L 434 0 
L 434 341 
L 1850 1753 
Q 2319 2222 2519 2614 
Q 2719 3006 2719 3438 
Q 2719 3909 2473 4175 
Q 2228 4441 1797 4441 
Q 1350 4441 1106 4219 
Q 863 3997 819 3553 
z
" transform="scale(0.015625)"/>
      <path id="DejaVuSerif-20" transform="scale(0.015625)"/>
      <path id="DejaVuSerif-6c" d="M 1313 331 
L 1856 331 
L 1856 0 
L 184 0 
L 184 331 
L 738 331 
L 738 4531 
L 184 4531 
L 184 4863 
L 1313 4863 
L 1313 331 
z
" transform="scale(0.015625)"/>
      <path id="DejaVuSerif-61" d="M 2547 1044 
L 2547 1747 
L 1806 1747 
Q 1378 1747 1168 1562 
Q 959 1378 959 997 
Q 959 650 1171 447 
Q 1384 244 1747 244 
Q 2106 244 2326 466 
Q 2547 688 2547 1044 
z
M 3122 2075 
L 3122 331 
L 3634 331 
L 3634 0 
L 2547 0 
L 2547 359 
Q 2356 128 2106 18 
Q 1856 -91 1522 -91 
Q 969 -91 644 203 
Q 319 497 319 997 
Q 319 1513 691 1797 
Q 1063 2081 1741 2081 
L 2547 2081 
L 2547 2309 
Q 2547 2688 2317 2895 
Q 2088 3103 1672 3103 
Q 1328 3103 1125 2947 
Q 922 2791 872 2484 
L 575 2484 
L 575 3156 
Q 875 3284 1158 3348 
Q 1441 3413 1709 3413 
Q 2400 3413 2761 3070 
Q 3122 2728 3122 2075 
z
" transform="scale(0.015625)"/>
      <path id="DejaVuSerif-6e" d="M 263 0 
L 263 331 
L 781 331 
L 781 2988 
L 231 2988 
L 231 3322 
L 1356 3322 
L 1356 2731 
Q 1516 3069 1770 3241 
Q 2025 3413 2363 3413 
Q 2913 3413 3172 3097 
Q 3431 2781 3431 2113 
L 3431 331 
L 3944 331 
L 3944 0 
L 2356 0 
L 2356 331 
L 2853 331 
L 2853 1931 
Q 2853 2541 2703 2767 
Q 2553 2994 2175 2994 
Q 1775 2994 1565 2701 
Q 1356 2409 1356 1850 
L 1356 331 
L 1856 331 
L 1856 0 
L 263 0 
z
" transform="scale(0.015625)"/>
      <path id="DejaVuSerif-65" d="M 3469 1600 
L 991 1600 
L 991 1575 
Q 991 903 1244 561 
Q 1497 219 1991 219 
Q 2369 219 2611 417 
Q 2853 616 2950 1006 
L 3413 1006 
Q 3275 459 2904 184 
Q 2534 -91 1931 -91 
Q 1203 -91 761 389 
Q 319 869 319 1663 
Q 319 2450 753 2931 
Q 1188 3413 1894 3413 
Q 2647 3413 3050 2948 
Q 3453 2484 3469 1600 
z
M 2791 1931 
Q 2772 2513 2545 2808 
Q 2319 3103 1894 3103 
Q 1497 3103 1269 2806 
Q 1041 2509 991 1931 
L 2791 1931 
z
" transform="scale(0.015625)"/>
      <path id="DejaVuSerif-73" d="M 359 184 
L 359 959 
L 691 959 
Q 703 588 923 403 
Q 1144 219 1575 219 
Q 1963 219 2166 364 
Q 2369 509 2369 788 
Q 2369 1006 2220 1140 
Q 2072 1275 1594 1428 
L 1178 1569 
Q 750 1706 558 1912 
Q 366 2119 366 2438 
Q 366 2894 700 3153 
Q 1034 3413 1625 3413 
Q 1888 3413 2178 3344 
Q 2469 3275 2778 3144 
L 2778 2419 
L 2447 2419 
Q 2434 2741 2221 2922 
Q 2009 3103 1644 3103 
Q 1281 3103 1095 2975 
Q 909 2847 909 2591 
Q 909 2381 1050 2254 
Q 1191 2128 1613 1997 
L 2069 1856 
Q 2541 1709 2748 1489 
Q 2956 1269 2956 922 
Q 2956 450 2595 179 
Q 2234 -91 1600 -91 
Q 1278 -91 972 -22 
Q 666 47 359 184 
z
" transform="scale(0.015625)"/>
     </defs>
     <use xlink:href="#DejaVuSerif-33"/>
     <use xlink:href="#DejaVuSerif-32" transform="translate(63.623047 0)"/>
     <use xlink:href="#DejaVuSerif-20" transform="translate(127.246094 0)"/>
     <use xlink:href="#DejaVuSerif-6c" transform="translate(159.033203 0)"/>
     <use xlink:href="#DejaVuSerif-61" transform="translate(191.015625 0)"/>
     <use xlink:href="#DejaVuSerif-6e" transform="translate(250.634766 0)"/>
     <use xlink:href="#DejaVuSerif-65" transform="translate(315.039062 0)"/>
     <use xlink:href="#DejaVuSerif-73" transform="translate(374.21875 0)"/>
    </g>
    <!-- (1 warp) -->
    <g style="fill: #333333" transform="translate(10.8 98.091766) scale(0.11 -0.11)">
     <defs>
      <path id="DejaVuSerif-28" d="M 2041 -997 
Q 1281 -656 893 83 
Q 506 822 506 1931 
Q 506 3044 893 3783 
Q 1281 4522 2041 4863 
L 2041 4556 
Q 1559 4225 1350 3623 
Q 1141 3022 1141 1931 
Q 1141 844 1350 242 
Q 1559 -359 2041 -691 
L 2041 -997 
z
" transform="scale(0.015625)"/>
      <path id="DejaVuSerif-31" d="M 909 0 
L 909 331 
L 1722 331 
L 1722 4213 
L 781 3603 
L 781 4013 
L 1919 4750 
L 2350 4750 
L 2350 331 
L 3163 331 
L 3163 0 
L 909 0 
z
" transform="scale(0.015625)"/>
      <path id="DejaVuSerif-77" d="M 3072 3322 
L 3922 728 
L 4672 2988 
L 4191 2988 
L 4191 3322 
L 5394 3322 
L 5394 2988 
L 5025 2988 
L 4038 0 
L 3559 0 
L 2741 2484 
L 1919 0 
L 1459 0 
L 475 2988 
L 103 2988 
L 103 3322 
L 1606 3322 
L 1606 2988 
L 1069 2988 
L 1813 728 
L 2669 3322 
L 3072 3322 
z
" transform="scale(0.015625)"/>
      <path id="DejaVuSerif-72" d="M 3059 3328 
L 3059 2497 
L 2728 2497 
Q 2713 2744 2591 2866 
Q 2469 2988 2234 2988 
Q 1809 2988 1582 2694 
Q 1356 2400 1356 1850 
L 1356 331 
L 2022 331 
L 2022 0 
L 263 0 
L 263 331 
L 781 331 
L 781 2994 
L 231 2994 
L 231 3322 
L 1356 3322 
L 1356 2731 
Q 1525 3078 1790 3245 
Q 2056 3413 2438 3413 
Q 2578 3413 2733 3391 
Q 2888 3369 3059 3328 
z
" transform="scale(0.015625)"/>
      <path id="DejaVuSerif-70" d="M 1313 1825 
L 1313 1497 
Q 1313 897 1542 583 
Q 1772 269 2209 269 
Q 2650 269 2876 622 
Q 3103 975 3103 1663 
Q 3103 2353 2876 2703 
Q 2650 3053 2209 3053 
Q 1772 3053 1542 2737 
Q 1313 2422 1313 1825 
z
M 738 2988 
L 184 2988 
L 184 3322 
L 1313 3322 
L 1313 2803 
Q 1481 3116 1742 3264 
Q 2003 3413 2388 3413 
Q 3000 3413 3387 2928 
Q 3775 2444 3775 1663 
Q 3775 881 3387 395 
Q 3000 -91 2388 -91 
Q 2003 -91 1742 57 
Q 1481 206 1313 519 
L 1313 -997 
L 1856 -997 
L 1856 -1331 
L 184 -1331 
L 184 -997 
L 738 -997 
L 738 2988 
z
" transform="scale(0.015625)"/>
      <path id="DejaVuSerif-29" d="M 453 -997 
L 453 -691 
Q 934 -359 1145 242 
Q 1356 844 1356 1931 
Q 1356 3022 1145 3623 
Q 934 4225 453 4556 
L 453 4863 
Q 1216 4522 1603 3783 
Q 1991 3044 1991 1931 
Q 1991 822 1603 83 
Q 1216 -656 453 -997 
z
" transform="scale(0.015625)"/>
     </defs>
     <use xlink:href="#DejaVuSerif-28"/>
     <use xlink:href="#DejaVuSerif-31" transform="translate(39.013672 0)"/>
     <use xlink:href="#DejaVuSerif-20" transform="translate(102.636719 0)"/>
     <use xlink:href="#DejaVuSerif-77" transform="translate(134.423828 0)"/>
     <use xlink:href="#DejaVuSerif-61" transform="translate(220.019531 0)"/>
     <use xlink:href="#DejaVuSerif-72" transform="translate(279.638672 0)"/>
     <use xlink:href="#DejaVuSerif-70" transform="translate(327.441406 0)"/>
     <use xlink:href="#DejaVuSerif-29" transform="translate(391.455078 0)"/>
    </g>
   </g>
   <g id="text_2">
    <!-- lane 0 -->
    <g transform="translate(281.179063 167.532969) scale(0.11 -0.11)">
     <defs>
      <path id="DejaVuSerif-Bold-6c" d="M 1797 378 
L 2272 378 
L 2272 0 
L 219 0 
L 219 378 
L 691 378 
L 691 4488 
L 219 4488 
L 219 4863 
L 1797 4863 
L 1797 378 
z
" transform="scale(0.015625)"/>
      <path id="DejaVuSerif-Bold-61" d="M 3525 2041 
L 3525 378 
L 4000 378 
L 4000 0 
L 2419 0 
L 2419 422 
Q 2200 159 1931 34 
Q 1663 -91 1319 -91 
Q 809 -91 536 182 
Q 263 456 263 966 
Q 263 1525 655 1803 
Q 1047 2081 1838 2081 
L 2419 2081 
L 2419 2278 
Q 2419 2681 2228 2873 
Q 2038 3066 1638 3066 
Q 1306 3066 1126 2930 
Q 947 2794 872 2484 
L 519 2484 
L 519 3200 
Q 816 3306 1134 3359 
Q 1453 3413 1806 3413 
Q 2697 3413 3111 3081 
Q 3525 2750 3525 2041 
z
M 2419 1044 
L 2419 1709 
L 2003 1709 
Q 1694 1709 1528 1540 
Q 1363 1372 1363 1056 
Q 1363 741 1483 584 
Q 1603 428 1850 428 
Q 2106 428 2262 597 
Q 2419 766 2419 1044 
z
" transform="scale(0.015625)"/>
      <path id="DejaVuSerif-Bold-6e" d="M 219 0 
L 219 378 
L 691 378 
L 691 2944 
L 219 2944 
L 219 3322 
L 1797 3322 
L 1797 2853 
Q 1997 3150 2253 3281 
Q 2509 3413 2900 3413 
Q 3459 3413 3745 3083 
Q 4031 2753 4031 2113 
L 4031 378 
L 4506 378 
L 4506 0 
L 2522 0 
L 2522 378 
L 2925 378 
L 2925 2144 
Q 2925 2566 2817 2730 
Q 2709 2894 2444 2894 
Q 2109 2894 1953 2648 
Q 1797 2403 1797 1869 
L 1797 378 
L 2203 378 
L 2203 0 
L 219 0 
z
" transform="scale(0.015625)"/>
      <path id="DejaVuSerif-Bold-65" d="M 2566 1875 
Q 2566 2531 2444 2795 
Q 2322 3059 2028 3059 
Q 1744 3059 1620 2800 
Q 1497 2541 1497 1931 
L 1497 1875 
L 2566 1875 
z
M 3781 1503 
L 1497 1503 
L 1497 1478 
Q 1497 834 1690 548 
Q 1884 263 2316 263 
Q 2675 263 2897 453 
Q 3119 644 3181 1006 
L 3700 1006 
Q 3566 441 3166 175 
Q 2766 -91 2047 -91 
Q 1184 -91 723 364 
Q 263 819 263 1663 
Q 263 2488 734 2950 
Q 1206 3413 2047 3413 
Q 2872 3413 3312 2927 
Q 3753 2441 3781 1503 
z
" transform="scale(0.015625)"/>
      <path id="DejaVuSerif-Bold-20" transform="scale(0.015625)"/>
      <path id="DejaVuSerif-Bold-30" d="M 2228 275 
Q 2603 275 2742 615 
Q 2881 956 2881 2328 
Q 2881 3691 2742 4037 
Q 2603 4384 2228 4384 
Q 1853 4384 1714 4043 
Q 1575 3703 1575 2328 
Q 1575 956 1714 615 
Q 1853 275 2228 275 
z
M 2228 -91 
Q 1294 -91 797 532 
Q 300 1156 300 2328 
Q 300 3500 797 4125 
Q 1294 4750 2228 4750 
Q 3159 4750 3656 4125 
Q 4153 3500 4153 2328 
Q 4153 1156 3656 532 
Q 3159 -91 2228 -91 
z
" transform="scale(0.015625)"/>
     </defs>
     <use xlink:href="#DejaVuSerif-Bold-6c"/>
     <use xlink:href="#DejaVuSerif-Bold-61" transform="translate(37.988281 0)"/>
     <use xlink:href="#DejaVuSerif-Bold-6e" transform="translate(102.783203 0)"/>
     <use xlink:href="#DejaVuSerif-Bold-65" transform="translate(175.488281 0)"/>
     <use xlink:href="#DejaVuSerif-Bold-20" transform="translate(239.111328 0)"/>
     <use xlink:href="#DejaVuSerif-Bold-30" transform="translate(273.925781 0)"/>
    </g>
   </g>
   <g id="patch_43">
    <path d="M 75.219933 100.67604 
Q 186.669639 125.752223 298.119344 150.828407 
" style="fill: none; opacity: 0.4; stroke: #888888; stroke-width: 0.5; stroke-linecap: round"/>
   </g>
   <g id="patch_44">
    <path d="M 89.577231 100.704071 
Q 193.8528 125.752473 298.12837 150.800875 
" style="fill: none; opacity: 0.4; stroke: #888888; stroke-width: 0.5; stroke-linecap: round"/>
   </g>
   <g id="patch_45">
    <path d="M 103.936882 100.736775 
Q 201.036059 125.752784 298.135235 150.768793 
" style="fill: none; opacity: 0.4; stroke: #888888; stroke-width: 0.5; stroke-linecap: round"/>
   </g>
   <g id="patch_46">
    <path d="M 118.289335 100.772593 
Q 208.216561 125.752378 298.143788 150.732163 
" style="fill: none; opacity: 0.4; stroke: #888888; stroke-width: 0.5; stroke-linecap: round"/>
   </g>
   <g id="patch_47">
    <path d="M 132.642295 100.81464 
Q 215.400168 125.752839 298.158041 150.691037 
" style="fill: none; opacity: 0.4; stroke: #888888; stroke-width: 0.5; stroke-linecap: round"/>
   </g>
   <g id="patch_48">
    <path d="M 146.988138 100.862138 
Q 222.579152 125.751863 298.170166 150.641587 
" style="fill: none; opacity: 0.4; stroke: #888888; stroke-width: 0.5; stroke-linecap: round"/>
   </g>
   <g id="patch_49">
    <path d="M 161.339426 100.921316 
Q 229.76348 125.752626 298.187535 150.583937 
" style="fill: none; opacity: 0.4; stroke: #888888; stroke-width: 0.5; stroke-linecap: round"/>
   </g>
   <g id="patch_50">
    <path d="M 175.67281 100.986723 
Q 236.943979 125.752016 298.215148 150.517309 
" style="fill: none; opacity: 0.4; stroke: #888888; stroke-width: 0.5; stroke-linecap: round"/>
   </g>
   <g id="patch_51">
    <path d="M 190.003518 101.067704 
Q 244.128928 125.753279 298.254338 150.438855 
" style="fill: none; opacity: 0.4; stroke: #888888; stroke-width: 0.5; stroke-linecap: round"/>
   </g>
   <g id="patch_52">
    <path d="M 204.318399 101.164257 
Q 251.308107 125.751895 298.297815 150.339532 
" style="fill: none; opacity: 0.4; stroke: #888888; stroke-width: 0.5; stroke-linecap: round"/>
   </g>
   <g id="patch_53">
    <path d="M 218.614454 101.282613 
Q 258.491597 125.752677 298.368739 150.222742 
" style="fill: none; opacity: 0.4; stroke: #888888; stroke-width: 0.5; stroke-linecap: round"/>
   </g>
   <g id="patch_54">
    <path d="M 232.88167 101.429 
Q 265.673856 125.752874 298.466042 150.076748 
" style="fill: none; opacity: 0.4; stroke: #888888; stroke-width: 0.5; stroke-linecap: round"/>
   </g>
   <g id="patch_55">
    <path d="M 247.098037 101.604976 
Q 272.855703 125.752788 298.613368 149.900599 
" style="fill: none; opacity: 0.4; stroke: #888888; stroke-width: 0.5; stroke-linecap: round"/>
   </g>
   <g id="patch_56">
    <path d="M 261.238569 101.810541 
Q 280.037634 125.752748 298.8367 149.694954 
" style="fill: none; opacity: 0.4; stroke: #888888; stroke-width: 0.5; stroke-linecap: round"/>
   </g>
   <g id="patch_57">
    <path d="M 275.266512 102.022336 
Q 287.218628 125.750802 299.170744 149.479267 
" style="fill: none; opacity: 0.4; stroke: #888888; stroke-width: 0.5; stroke-linecap: round"/>
   </g>
   <g id="patch_58">
    <path d="M 289.165533 102.190526 
Q 294.401879 125.754078 299.638224 149.317631 
" style="fill: none; opacity: 0.4; stroke: #888888; stroke-width: 0.5; stroke-linecap: round"/>
   </g>
   <g id="patch_59">
    <path d="M 302.977253 102.23413 
Q 301.583554 125.752805 300.189854 149.271479 
" style="fill: none; opacity: 0.4; stroke: #888888; stroke-width: 0.5; stroke-linecap: round"/>
   </g>
   <g id="patch_60">
    <path d="M 316.815366 102.128233 
Q 308.765893 125.751687 300.71642 149.375141 
" style="fill: none; opacity: 0.4; stroke: #888888; stroke-width: 0.5; stroke-linecap: round"/>
   </g>
   <g id="patch_61">
    <path d="M 330.767359 101.935126 
Q 315.946857 125.75379 301.126356 149.572453 
" style="fill: none; opacity: 0.4; stroke: #888888; stroke-width: 0.5; stroke-linecap: round"/>
   </g>
   <g id="patch_62">
    <path d="M 344.844952 101.723332 
Q 323.129148 125.753115 301.413343 149.782899 
" style="fill: none; opacity: 0.4; stroke: #888888; stroke-width: 0.5; stroke-linecap: round"/>
   </g>
   <g id="patch_63">
    <path d="M 359.019629 101.530225 
Q 330.31015 125.753848 301.600672 149.97747 
" style="fill: none; opacity: 0.4; stroke: #888888; stroke-width: 0.5; stroke-linecap: round"/>
   </g>
   <g id="patch_64">
    <path d="M 373.264189 101.363593 
Q 337.493214 125.752894 301.722238 150.142195 
" style="fill: none; opacity: 0.4; stroke: #888888; stroke-width: 0.5; stroke-linecap: round"/>
   </g>
   <g id="patch_65">
    <path d="M 387.545386 101.229664 
Q 344.677393 125.751609 301.8094 150.273554 
" style="fill: none; opacity: 0.4; stroke: #888888; stroke-width: 0.5; stroke-linecap: round"/>
   </g>
   <g id="patch_66">
    <path d="M 401.851408 101.120652 
Q 351.857588 125.752644 301.863767 150.384636 
" style="fill: none; opacity: 0.4; stroke: #888888; stroke-width: 0.5; stroke-linecap: round"/>
   </g>
   <g id="patch_67">
    <path d="M 416.17561 101.030328 
Q 359.04305 125.751147 301.910491 150.471966 
" style="fill: none; opacity: 0.4; stroke: #888888; stroke-width: 0.5; stroke-linecap: round"/>
   </g>
   <g id="patch_68">
    <path d="M 430.502211 100.958692 
Q 366.220297 125.753144 301.938383 150.547597 
" style="fill: none; opacity: 0.4; stroke: #888888; stroke-width: 0.5; stroke-linecap: round"/>
   </g>
   <g id="patch_69">
    <path d="M 444.842286 100.896399 
Q 373.400179 125.753834 301.958071 150.611268 
" style="fill: none; opacity: 0.4; stroke: #888888; stroke-width: 0.5; stroke-linecap: round"/>
   </g>
   <g id="patch_70">
    <path d="M 459.195316 100.841115 
Q 380.586443 125.752377 301.977571 150.66364 
" style="fill: none; opacity: 0.4; stroke: #888888; stroke-width: 0.5; stroke-linecap: round"/>
   </g>
   <g id="patch_71">
    <path d="M 473.544677 100.795953 
Q 387.767654 125.75263 301.99063 150.709307 
" style="fill: none; opacity: 0.4; stroke: #888888; stroke-width: 0.5; stroke-linecap: round"/>
   </g>
   <g id="patch_72">
    <path d="M 487.896299 100.75702 
Q 394.948333 125.752987 302.000366 150.748954 
" style="fill: none; opacity: 0.4; stroke: #888888; stroke-width: 0.5; stroke-linecap: round"/>
   </g>
   <g id="patch_73">
    <path d="M 502.251152 100.722759 
Q 402.131595 125.752648 302.012037 150.782538 
" style="fill: none; opacity: 0.4; stroke: #888888; stroke-width: 0.5; stroke-linecap: round"/>
   </g>
   <g id="patch_74">
    <path d="M 516.605289 100.69317 
Q 409.311466 125.753146 302.017644 150.813122 
" style="fill: none; opacity: 0.4; stroke: #888888; stroke-width: 0.5; stroke-linecap: round"/>
   </g>
   <g id="text_3">
    <!-- (1) warp shuffle: -->
    <g style="fill: #444444" transform="translate(451.271563 117.262406) scale(0.11 -0.11)">
     <defs>
      <path id="DejaVuSerif-Italic-28" d="M 1472 -997 
Q 778 -656 534 83 
Q 291 822 506 1931 
Q 722 3044 1253 3783 
Q 1784 4522 2609 4863 
L 2550 4556 
Q 2006 4225 1679 3623 
Q 1353 3022 1141 1931 
Q 928 844 1020 242 
Q 1113 -359 1531 -691 
L 1472 -997 
z
" transform="scale(0.015625)"/>
      <path id="DejaVuSerif-Italic-31" d="M 447 0 
L 513 331 
L 1325 331 
L 2078 4213 
L 1019 3603 
L 1100 4013 
L 2381 4750 
L 2813 4750 
L 1953 331 
L 2766 331 
L 2700 0 
L 447 0 
z
" transform="scale(0.015625)"/>
      <path id="DejaVuSerif-Italic-29" d="M -113 -997 
L -53 -691 
Q 491 -359 819 242 
Q 1147 844 1359 1931 
Q 1572 3022 1478 3623 
Q 1384 4225 966 4556 
L 1025 4863 
Q 1722 4522 1965 3783 
Q 2209 3044 1994 1931 
Q 1778 822 1247 83 
Q 716 -656 -113 -997 
z
" transform="scale(0.015625)"/>
      <path id="DejaVuSerif-Italic-20" transform="scale(0.015625)"/>
      <path id="DejaVuSerif-Italic-77" d="M 3741 728 
Q 4156 1178 4250 1344 
Q 4594 1969 4931 2988 
L 4447 2984 
L 4513 3322 
L 5347 3322 
L 5281 2984 
L 5278 2984 
Q 4959 1825 4656 1266 
Q 4209 469 3719 0 
L 3241 0 
L 2900 2484 
L 1597 0 
L 1138 0 
L 734 2988 
L 359 2981 
L 425 3322 
L 1281 3322 
L 1631 728 
L 2991 3322 
L 3394 3322 
L 3741 728 
z
" transform="scale(0.015625)"/>
      <path id="DejaVuSerif-Italic-61" d="M 2325 519 
Q 1909 -91 1238 -91 
Q 688 -91 409 281 
Q 216 544 216 919 
Q 216 1078 250 1256 
Q 463 2359 1231 2928 
Q 1884 3413 2675 3413 
Q 3206 3413 3388 3322 
L 2806 331 
L 3300 331 
L 3238 0 
L 2225 0 
L 2325 519 
z
M 822 938 
Q 822 269 1469 269 
Q 1863 269 2130 583 
Q 2397 897 2516 1497 
L 2806 3003 
L 2806 3003 
Q 2806 3094 2556 3094 
Q 1956 3094 1491 2625 
Q 1028 2153 863 1297 
Q 822 1097 822 938 
z
" transform="scale(0.015625)"/>
      <path id="DejaVuSerif-Italic-72" d="M 3375 3328 
L 3213 2497 
L 2881 2497 
Q 2891 2559 2891 2613 
Q 2891 2775 2816 2866 
Q 2719 2988 2484 2988 
Q 2059 2988 1775 2694 
Q 1491 2400 1384 1850 
L 1025 0 
L 450 0 
L 1031 2994 
L 481 2994 
L 544 3322 
L 1669 3322 
L 1556 2731 
Q 1791 3078 2089 3245 
Q 2388 3413 2769 3413 
Q 2909 3413 3059 3391 
Q 3209 3369 3375 3328 
z
" transform="scale(0.015625)"/>
      <path id="DejaVuSerif-Italic-70" d="M 1466 1825 
L 1400 1497 
Q 1353 1250 1353 1053 
Q 1353 769 1453 581 
Q 1622 269 2059 269 
Q 2500 269 2795 622 
Q 3091 975 3225 1663 
Q 3284 1978 3284 2225 
Q 3284 2513 3200 2703 
Q 3041 3053 2600 3053 
Q 2163 3053 1872 2737 
Q 1581 2422 1466 1825 
z
M 1116 2988 
L 563 2988 
L 628 3322 
L 1756 3322 
L 1656 2803 
Q 1884 3116 2175 3264 
Q 2466 3413 2850 3413 
Q 3463 3413 3753 2928 
Q 3947 2609 3947 2163 
Q 3947 1928 3897 1663 
Q 3744 881 3262 395 
Q 2781 -91 2169 -91 
Q 1784 -91 1551 57 
Q 1319 206 1213 519 
L 850 -1331 
L 275 -1331 
L 1116 2988 
z
" transform="scale(0.015625)"/>
      <path id="DejaVuSerif-Italic-73" d="M 222 959 
L 553 959 
Q 541 869 541 788 
Q 541 219 1313 219 
Q 2088 219 2200 788 
Q 2209 844 2209 944 
Q 2209 1041 2103 1158 
Q 1997 1275 1550 1428 
L 1159 1569 
Q 759 1706 629 1882 
Q 500 2059 500 2263 
Q 500 2344 516 2438 
Q 606 2894 990 3153 
Q 1375 3413 1931 3413 
Q 2484 3413 3066 3144 
L 2925 2419 
L 2594 2419 
Q 2606 2491 2606 2553 
Q 2606 2781 2448 2942 
Q 2291 3103 1925 3103 
Q 1191 3103 1091 2591 
Q 1078 2538 1078 2444 
Q 1078 2347 1179 2237 
Q 1281 2128 1678 1997 
L 2106 1856 
Q 2550 1709 2716 1488 
Q 2831 1331 2831 1178 
Q 2831 522 2306 181 
Q 1894 -91 1262 -91 
Q 631 -91 72 184 
L 222 959 
z
" transform="scale(0.015625)"/>
      <path id="DejaVuSerif-Italic-68" d="M 309 0 
L 1191 4531 
L 641 4531 
L 703 4863 
L 1828 4863 
L 1416 2731 
Q 1641 3069 1928 3241 
Q 2216 3413 2553 3413 
Q 3103 3413 3300 3097 
Q 3422 2906 3422 2588 
Q 3422 2378 3369 2113 
L 3022 331 
L 3534 331 
L 3472 0 
L 2381 0 
L 2756 1931 
Q 2819 2253 2819 2469 
Q 2819 2659 2769 2763 
Q 2666 2988 2284 2988 
Q 1884 2988 1617 2697 
Q 1350 2406 1244 1850 
L 884 0 
L 309 0 
z
" transform="scale(0.015625)"/>
      <path id="DejaVuSerif-Italic-75" d="M 3097 3322 
L 3672 3322 
L 3091 331 
L 3634 331 
L 3572 0 
L 2453 0 
L 2566 588 
Q 2341 256 2055 82 
Q 1769 -91 1434 -91 
Q 881 -91 681 225 
Q 559 413 559 734 
Q 559 944 613 1209 
L 956 2988 
L 438 2988 
L 503 3322 
L 1600 3322 
L 1225 1388 
Q 1163 1066 1163 853 
Q 1163 663 1213 556 
Q 1316 331 1697 331 
Q 2097 331 2364 625 
Q 2631 919 2738 1478 
L 3097 3322 
z
" transform="scale(0.015625)"/>
      <path id="DejaVuSerif-Italic-66" d="M 3191 4078 
L 2888 4078 
Q 2900 4144 2900 4203 
Q 2900 4347 2825 4434 
Q 2719 4556 2472 4556 
Q 2150 4556 1984 4379 
Q 1819 4203 1731 3750 
L 1647 3322 
L 2575 3322 
L 2509 2988 
L 1581 2988 
L 963 -206 
Q 853 -763 509 -1047 
Q 166 -1331 -394 -1331 
L -356 -1025 
Q -28 -1025 131 -850 
Q 297 -663 388 -206 
L 1006 2988 
L 456 2988 
L 522 3322 
L 1072 3322 
L 1153 3738 
Q 1263 4297 1606 4578 
Q 1950 4863 2509 4863 
Q 2719 4863 2920 4825 
Q 3122 4788 3316 4709 
L 3191 4078 
z
" transform="scale(0.015625)"/>
      <path id="DejaVuSerif-Italic-6c" d="M 903 331 
L 1447 331 
L 1384 0 
L 266 0 
L 1147 4531 
L 594 4531 
L 656 4863 
L 1784 4863 
L 903 331 
z
" transform="scale(0.015625)"/>
      <path id="DejaVuSerif-Italic-65" d="M 938 1275 
Q 925 1156 925 1050 
Q 925 756 1031 563 
Q 1216 219 1709 219 
Q 2072 219 2250 328 
Q 2569 525 2644 778 
L 3066 778 
Q 2941 381 2475 103 
Q 2150 -91 1506 -91 
Q 863 -91 516 388 
Q 272 722 272 1206 
Q 272 1419 319 1659 
Q 472 2450 1000 2931 
Q 1528 3413 2278 3413 
Q 3500 3413 3500 2547 
Q 3500 1913 2859 1603 
Q 2206 1288 938 1275 
z
M 2541 1975 
Q 2891 2181 2891 2569 
Q 2891 3103 2181 3103 
Q 1763 3103 1472 2784 
Q 1181 2466 1003 1606 
Q 2006 1653 2541 1975 
z
" transform="scale(0.015625)"/>
      <path id="DejaVuSerif-Italic-3a" d="M 529 29 
Q 434 150 468 325 
Q 503 500 647 622 
Q 791 744 966 744 
Q 1141 744 1237 622 
Q 1334 500 1300 325 
Q 1266 150 1123 29 
Q 981 -91 803 -91 
Q 625 -91 529 29 
z
M 926 2067 
Q 828 2188 862 2363 
Q 897 2538 1040 2658 
Q 1184 2778 1359 2778 
Q 1538 2778 1633 2659 
Q 1728 2541 1693 2362 
Q 1659 2184 1518 2065 
Q 1378 1947 1200 1947 
Q 1025 1947 926 2067 
z
" transform="scale(0.015625)"/>
     </defs>
     <use xlink:href="#DejaVuSerif-Italic-28"/>
     <use xlink:href="#DejaVuSerif-Italic-31" transform="translate(39.013672 0)"/>
     <use xlink:href="#DejaVuSerif-Italic-29" transform="translate(102.636719 0)"/>
     <use xlink:href="#DejaVuSerif-Italic-20" transform="translate(141.650391 0)"/>
     <use xlink:href="#DejaVuSerif-Italic-77" transform="translate(173.4375 0)"/>
     <use xlink:href="#DejaVuSerif-Italic-61" transform="translate(259.033203 0)"/>
     <use xlink:href="#DejaVuSerif-Italic-72" transform="translate(318.652344 0)"/>
     <use xlink:href="#DejaVuSerif-Italic-70" transform="translate(366.455078 0)"/>
     <use xlink:href="#DejaVuSerif-Italic-20" transform="translate(430.46875 0)"/>
     <use xlink:href="#DejaVuSerif-Italic-73" transform="translate(462.255859 0)"/>
     <use xlink:href="#DejaVuSerif-Italic-68" transform="translate(513.574219 0)"/>
     <use xlink:href="#DejaVuSerif-Italic-75" transform="translate(577.978516 0)"/>
     <use xlink:href="#DejaVuSerif-Italic-66" transform="translate(642.382812 0)"/>
     <use xlink:href="#DejaVuSerif-Italic-66" transform="translate(679.394531 0)"/>
     <use xlink:href="#DejaVuSerif-Italic-6c" transform="translate(716.40625 0)"/>
     <use xlink:href="#DejaVuSerif-Italic-65" transform="translate(748.388672 0)"/>
     <use xlink:href="#DejaVuSerif-Italic-3a" transform="translate(807.568359 0)"/>
    </g>
    <!--      __shfl_down_sync, -->
    <g style="fill: #444444" transform="translate(451.271563 129.58) scale(0.11 -0.11)">
     <defs>
      <path id="DejaVuSerif-Italic-5f" d="M 3200 -1259 
L 3200 -1509 
L 0 -1509 
L 0 -1259 
L 3200 -1259 
z
" transform="scale(0.015625)"/>
      <path id="DejaVuSerif-Italic-64" d="M 3841 4863 
L 2897 0 
L 2322 0 
L 2422 519 
Q 2191 206 1902 57 
Q 1613 -91 1228 -91 
Q 616 -91 322 394 
Q 125 716 125 1166 
Q 125 1397 178 1663 
Q 331 2444 812 2928 
Q 1294 3413 1909 3413 
Q 2294 3413 2525 3264 
Q 2756 3116 2866 2803 
L 3200 4531 
L 2656 4531 
L 2722 4863 
L 3841 4863 
z
M 2613 1497 
L 2675 1825 
Q 2722 2069 2722 2266 
Q 2722 2550 2622 2738 
Q 2456 3053 2019 3053 
Q 1575 3053 1279 2703 
Q 984 2353 850 1663 
Q 788 1347 788 1103 
Q 788 813 875 622 
Q 1031 269 1475 269 
Q 1913 269 2203 583 
Q 2494 897 2613 1497 
z
" transform="scale(0.015625)"/>
      <path id="DejaVuSerif-Italic-6f" d="M 1644 219 
Q 2106 219 2414 584 
Q 2722 950 2859 1663 
Q 2922 1988 2922 2241 
Q 2922 2541 2834 2738 
Q 2669 3103 2206 3103 
Q 1744 3103 1436 2739 
Q 1128 2375 991 1663 
Q 928 1338 928 1088 
Q 928 784 1019 584 
Q 1184 219 1644 219 
z
M 1584 -91 
Q 859 -91 513 388 
Q 272 722 272 1203 
Q 272 1419 319 1663 
Q 472 2456 1005 2934 
Q 1538 3413 2266 3413 
Q 2994 3413 3341 2934 
Q 3578 2603 3578 2122 
Q 3578 1906 3531 1663 
Q 3378 869 2845 389 
Q 2313 -91 1584 -91 
z
" transform="scale(0.015625)"/>
      <path id="DejaVuSerif-Italic-6e" d="M 450 0 
L 1031 2988 
L 481 2988 
L 544 3322 
L 1669 3322 
L 1556 2731 
Q 1781 3069 2068 3241 
Q 2356 3413 2694 3413 
Q 3244 3413 3444 3097 
Q 3563 2906 3563 2588 
Q 3563 2378 3509 2113 
L 3163 331 
L 3675 331 
L 3613 0 
L 2522 0 
L 2897 1931 
Q 2959 2253 2959 2469 
Q 2959 2659 2909 2769 
Q 2803 2994 2425 2994 
Q 2025 2994 1759 2701 
Q 1494 2409 1384 1850 
L 1025 0 
L 450 0 
z
" transform="scale(0.015625)"/>
      <path id="DejaVuSerif-Italic-79" d="M 3681 3294 
Q 3372 1506 2828 563 
Q 2031 -822 1391 -1238 
Q 1106 -1422 356 -1422 
Q 209 -1422 60 -1397 
Q -88 -1372 -238 -1325 
L -113 -691 
L 181 -691 
Q 175 -741 175 -788 
Q 175 -919 231 -994 
Q 309 -1100 513 -1100 
Q 1063 -1100 1541 -622 
L 756 2988 
L 378 2988 
L 444 3322 
L 1303 3322 
L 2041 25 
Q 2544 778 2666 1088 
Q 3059 2059 3138 2959 
L 2759 2959 
L 2825 3294 
L 3681 3294 
z
" transform="scale(0.015625)"/>
      <path id="DejaVuSerif-Italic-63" d="M 3163 997 
Q 2938 466 2536 187 
Q 2134 -91 1584 -91 
Q 859 -91 513 388 
Q 272 722 272 1203 
Q 272 1419 319 1663 
Q 475 2459 1008 2936 
Q 1541 3413 2266 3413 
Q 2581 3413 2879 3339 
Q 3178 3266 3463 3116 
L 3300 2266 
L 2966 2266 
Q 2966 2309 2966 2347 
Q 2966 2722 2803 2903 
Q 2622 3103 2213 3103 
Q 1747 3103 1439 2742 
Q 1131 2381 991 1663 
Q 928 1334 928 1078 
Q 928 778 1016 581 
Q 1181 219 1650 219 
Q 2022 219 2281 412 
Q 2541 606 2700 997 
L 3163 997 
z
" transform="scale(0.015625)"/>
      <path id="DejaVuSerif-Italic-2c" d="M 125 -622 
Q 463 -406 656 -114 
Q 850 178 931 594 
L 953 709 
L 1569 709 
Q 1441 175 1139 -208 
Q 838 -591 328 -872 
L 125 -622 
z
" transform="scale(0.015625)"/>
     </defs>
     <use xlink:href="#DejaVuSerif-Italic-20"/>
     <use xlink:href="#DejaVuSerif-Italic-20" transform="translate(31.787109 0)"/>
     <use xlink:href="#DejaVuSerif-Italic-20" transform="translate(63.574219 0)"/>
     <use xlink:href="#DejaVuSerif-Italic-20" transform="translate(95.361328 0)"/>
     <use xlink:href="#DejaVuSerif-Italic-20" transform="translate(127.148438 0)"/>
     <use xlink:href="#DejaVuSerif-Italic-5f" transform="translate(158.935547 0)"/>
     <use xlink:href="#DejaVuSerif-Italic-5f" transform="translate(208.935547 0)"/>
     <use xlink:href="#DejaVuSerif-Italic-73" transform="translate(258.935547 0)"/>
     <use xlink:href="#DejaVuSerif-Italic-68" transform="translate(310.253906 0)"/>
     <use xlink:href="#DejaVuSerif-Italic-66" transform="translate(374.658203 0)"/>
     <use xlink:href="#DejaVuSerif-Italic-6c" transform="translate(411.669922 0)"/>
     <use xlink:href="#DejaVuSerif-Italic-5f" transform="translate(443.652344 0)"/>
     <use xlink:href="#DejaVuSerif-Italic-64" transform="translate(493.652344 0)"/>
     <use xlink:href="#DejaVuSerif-Italic-6f" transform="translate(557.666016 0)"/>
     <use xlink:href="#DejaVuSerif-Italic-77" transform="translate(617.871094 0)"/>
     <use xlink:href="#DejaVuSerif-Italic-6e" transform="translate(703.466797 0)"/>
     <use xlink:href="#DejaVuSerif-Italic-5f" transform="translate(767.871094 0)"/>
     <use xlink:href="#DejaVuSerif-Italic-73" transform="translate(817.871094 0)"/>
     <use xlink:href="#DejaVuSerif-Italic-79" transform="translate(869.189453 0)"/>
     <use xlink:href="#DejaVuSerif-Italic-6e" transform="translate(925.683594 0)"/>
     <use xlink:href="#DejaVuSerif-Italic-63" transform="translate(990.087891 0)"/>
     <use xlink:href="#DejaVuSerif-Italic-2c" transform="translate(1046.09375 0)"/>
    </g>
    <!--      5 levels, lane 0 owns sum -->
    <g style="fill: #444444" transform="translate(451.271563 142.203531) scale(0.11 -0.11)">
     <defs>
      <path id="DejaVuSerif-Italic-35" d="M 3681 4666 
L 3581 4153 
L 1444 4153 
L 1184 2816 
Q 1369 2928 1597 2984 
Q 1825 3041 2094 3041 
Q 2850 3041 3206 2622 
Q 3563 2203 3422 1478 
Q 3278 738 2754 323 
Q 2231 -91 1431 -91 
Q 1109 -91 787 -12 
Q 466 66 144 225 
L 319 1131 
L 672 1131 
Q 613 688 822 453 
Q 1031 219 1491 219 
Q 1984 219 2314 544 
Q 2644 869 2763 1478 
Q 2878 2084 2678 2407 
Q 2478 2731 1981 2731 
Q 1700 2731 1465 2631 
Q 1231 2531 1025 2322 
L 756 2322 
L 1213 4666 
L 3681 4666 
z
" transform="scale(0.015625)"/>
      <path id="DejaVuSerif-Italic-76" d="M 1681 0 
L 1259 0 
L 619 2988 
L 241 2988 
L 303 3322 
L 1163 3322 
L 1725 703 
Q 2084 1016 2325 1413 
Q 2825 2238 3003 2988 
L 2622 2988 
L 2688 3322 
L 3547 3322 
Q 3206 2034 2775 1313 
Q 2400 688 1681 0 
z
" transform="scale(0.015625)"/>
      <path id="DejaVuSerif-Italic-30" d="M 1011 744 
Q 1147 219 1625 219 
Q 2103 219 2442 744 
Q 2781 1269 2988 2328 
Q 3194 3391 3058 3916 
Q 2922 4441 2444 4441 
Q 1966 4441 1627 3916 
Q 1288 3391 1081 2328 
Q 875 1269 1011 744 
z
M 1563 -91 
Q 803 -91 501 546 
Q 200 1184 422 2328 
Q 644 3475 1195 4112 
Q 1747 4750 2506 4750 
Q 3269 4750 3569 4112 
Q 3869 3475 3647 2328 
Q 3425 1184 2875 546 
Q 2325 -91 1563 -91 
z
" transform="scale(0.015625)"/>
      <path id="DejaVuSerif-Italic-6d" d="M 3503 2675 
Q 3741 3041 4034 3227 
Q 4328 3413 4672 3413 
Q 5194 3413 5388 3088 
Q 5503 2894 5503 2578 
Q 5503 2372 5453 2113 
L 5106 331 
L 5625 331 
L 5563 0 
L 4469 0 
L 4866 2047 
Q 4913 2291 4913 2466 
Q 4913 2659 4856 2772 
Q 4750 2988 4403 2988 
Q 4019 2988 3761 2697 
Q 3503 2406 3394 1850 
L 3034 0 
L 2459 0 
L 2863 2069 
Q 2906 2303 2906 2472 
Q 2906 2666 2850 2775 
Q 2741 2988 2394 2988 
Q 2009 2988 1751 2697 
Q 1494 2406 1384 1850 
L 1025 0 
L 450 0 
L 1031 2994 
L 481 2994 
L 544 3322 
L 1669 3322 
L 1556 2731 
Q 1778 3063 2059 3238 
Q 2341 3413 2653 3413 
Q 3041 3413 3262 3220 
Q 3484 3028 3503 2675 
z
" transform="scale(0.015625)"/>
     </defs>
     <use xlink:href="#DejaVuSerif-Italic-20"/>
     <use xlink:href="#DejaVuSerif-Italic-20" transform="translate(31.787109 0)"/>
     <use xlink:href="#DejaVuSerif-Italic-20" transform="translate(63.574219 0)"/>
     <use xlink:href="#DejaVuSerif-Italic-20" transform="translate(95.361328 0)"/>
     <use xlink:href="#DejaVuSerif-Italic-20" transform="translate(127.148438 0)"/>
     <use xlink:href="#DejaVuSerif-Italic-35" transform="translate(158.935547 0)"/>
     <use xlink:href="#DejaVuSerif-Italic-20" transform="translate(222.558594 0)"/>
     <use xlink:href="#DejaVuSerif-Italic-6c" transform="translate(254.345703 0)"/>
     <use xlink:href="#DejaVuSerif-Italic-65" transform="translate(286.328125 0)"/>
     <use xlink:href="#DejaVuSerif-Italic-76" transform="translate(345.507812 0)"/>
     <use xlink:href="#DejaVuSerif-Italic-65" transform="translate(402.001953 0)"/>
     <use xlink:href="#DejaVuSerif-Italic-6c" transform="translate(461.181641 0)"/>
     <use xlink:href="#DejaVuSerif-Italic-73" transform="translate(493.164062 0)"/>
     <use xlink:href="#DejaVuSerif-Italic-2c" transform="translate(544.482422 0)"/>
     <use xlink:href="#DejaVuSerif-Italic-20" transform="translate(576.269531 0)"/>
     <use xlink:href="#DejaVuSerif-Italic-6c" transform="translate(608.056641 0)"/>
     <use xlink:href="#DejaVuSerif-Italic-61" transform="translate(640.039062 0)"/>
     <use xlink:href="#DejaVuSerif-Italic-6e" transform="translate(699.658203 0)"/>
     <use xlink:href="#DejaVuSerif-Italic-65" transform="translate(764.0625 0)"/>
     <use xlink:href="#DejaVuSerif-Italic-20" transform="translate(823.242188 0)"/>
     <use xlink:href="#DejaVuSerif-Italic-30" transform="translate(855.029297 0)"/>
     <use xlink:href="#DejaVuSerif-Italic-20" transform="translate(918.652344 0)"/>
     <use xlink:href="#DejaVuSerif-Italic-6f" transform="translate(950.439453 0)"/>
     <use xlink:href="#DejaVuSerif-Italic-77" transform="translate(1010.644531 0)"/>
     <use xlink:href="#DejaVuSerif-Italic-6e" transform="translate(1096.240234 0)"/>
     <use xlink:href="#DejaVuSerif-Italic-73" transform="translate(1160.644531 0)"/>
     <use xlink:href="#DejaVuSerif-Italic-20" transform="translate(1211.962891 0)"/>
     <use xlink:href="#DejaVuSerif-Italic-73" transform="translate(1243.75 0)"/>
     <use xlink:href="#DejaVuSerif-Italic-75" transform="translate(1295.068359 0)"/>
     <use xlink:href="#DejaVuSerif-Italic-6d" transform="translate(1359.472656 0)"/>
    </g>
   </g>
   <g id="text_4">
    <!-- warp 0 -->
    <g transform="translate(74.549687 242.857031) scale(0.1 -0.1)">
     <defs>
      <path id="DejaVuSerif-30" d="M 2034 219 
Q 2513 219 2750 744 
Q 2988 1269 2988 2328 
Q 2988 3391 2750 3916 
Q 2513 4441 2034 4441 
Q 1556 4441 1318 3916 
Q 1081 3391 1081 2328 
Q 1081 1269 1318 744 
Q 1556 219 2034 219 
z
M 2034 -91 
Q 1275 -91 848 546 
Q 422 1184 422 2328 
Q 422 3475 848 4112 
Q 1275 4750 2034 4750 
Q 2797 4750 3222 4112 
Q 3647 3475 3647 2328 
Q 3647 1184 3222 546 
Q 2797 -91 2034 -91 
z
" transform="scale(0.015625)"/>
     </defs>
     <use xlink:href="#DejaVuSerif-77"/>
     <use xlink:href="#DejaVuSerif-61" transform="translate(85.595703 0)"/>
     <use xlink:href="#DejaVuSerif-72" transform="translate(145.214844 0)"/>
     <use xlink:href="#DejaVuSerif-70" transform="translate(193.017578 0)"/>
     <use xlink:href="#DejaVuSerif-20" transform="translate(257.03125 0)"/>
     <use xlink:href="#DejaVuSerif-30" transform="translate(288.818359 0)"/>
    </g>
   </g>
   <g id="text_5">
    <!-- warp 1 -->
    <g transform="translate(142.589688 242.857031) scale(0.1 -0.1)">
     <use xlink:href="#DejaVuSerif-77"/>
     <use xlink:href="#DejaVuSerif-61" transform="translate(85.595703 0)"/>
     <use xlink:href="#DejaVuSerif-72" transform="translate(145.214844 0)"/>
     <use xlink:href="#DejaVuSerif-70" transform="translate(193.017578 0)"/>
     <use xlink:href="#DejaVuSerif-20" transform="translate(257.03125 0)"/>
     <use xlink:href="#DejaVuSerif-31" transform="translate(288.818359 0)"/>
    </g>
   </g>
   <g id="text_6">
    <!-- warp 2 -->
    <g transform="translate(210.629687 242.857031) scale(0.1 -0.1)">
     <use xlink:href="#DejaVuSerif-77"/>
     <use xlink:href="#DejaVuSerif-61" transform="translate(85.595703 0)"/>
     <use xlink:href="#DejaVuSerif-72" transform="translate(145.214844 0)"/>
     <use xlink:href="#DejaVuSerif-70" transform="translate(193.017578 0)"/>
     <use xlink:href="#DejaVuSerif-20" transform="translate(257.03125 0)"/>
     <use xlink:href="#DejaVuSerif-32" transform="translate(288.818359 0)"/>
    </g>
   </g>
   <g id="text_7">
    <!-- warp 3 -->
    <g transform="translate(278.669688 242.857031) scale(0.1 -0.1)">
     <use xlink:href="#DejaVuSerif-77"/>
     <use xlink:href="#DejaVuSerif-61" transform="translate(85.595703 0)"/>
     <use xlink:href="#DejaVuSerif-72" transform="translate(145.214844 0)"/>
     <use xlink:href="#DejaVuSerif-70" transform="translate(193.017578 0)"/>
     <use xlink:href="#DejaVuSerif-20" transform="translate(257.03125 0)"/>
     <use xlink:href="#DejaVuSerif-33" transform="translate(288.818359 0)"/>
    </g>
   </g>
   <g id="text_8">
    <!-- warp 4 -->
    <g transform="translate(346.709688 242.857031) scale(0.1 -0.1)">
     <defs>
      <path id="DejaVuSerif-34" d="M 2234 1581 
L 2234 4063 
L 641 1581 
L 2234 1581 
z
M 3609 0 
L 1484 0 
L 1484 331 
L 2234 331 
L 2234 1247 
L 197 1247 
L 197 1588 
L 2241 4750 
L 2859 4750 
L 2859 1581 
L 3750 1581 
L 3750 1247 
L 2859 1247 
L 2859 331 
L 3609 331 
L 3609 0 
z
" transform="scale(0.015625)"/>
     </defs>
     <use xlink:href="#DejaVuSerif-77"/>
     <use xlink:href="#DejaVuSerif-61" transform="translate(85.595703 0)"/>
     <use xlink:href="#DejaVuSerif-72" transform="translate(145.214844 0)"/>
     <use xlink:href="#DejaVuSerif-70" transform="translate(193.017578 0)"/>
     <use xlink:href="#DejaVuSerif-20" transform="translate(257.03125 0)"/>
     <use xlink:href="#DejaVuSerif-34" transform="translate(288.818359 0)"/>
    </g>
   </g>
   <g id="text_9">
    <!-- warp 5 -->
    <g transform="translate(414.749688 242.857031) scale(0.1 -0.1)">
     <defs>
      <path id="DejaVuSerif-35" d="M 3219 4666 
L 3219 4153 
L 1081 4153 
L 1081 2816 
Q 1244 2928 1461 2984 
Q 1678 3041 1947 3041 
Q 2703 3041 3140 2622 
Q 3578 2203 3578 1478 
Q 3578 738 3136 323 
Q 2694 -91 1894 -91 
Q 1572 -91 1234 -12 
Q 897 66 544 225 
L 544 1131 
L 897 1131 
Q 925 688 1179 453 
Q 1434 219 1894 219 
Q 2388 219 2653 544 
Q 2919 869 2919 1478 
Q 2919 2084 2655 2407 
Q 2391 2731 1894 2731 
Q 1613 2731 1398 2631 
Q 1184 2531 1019 2322 
L 750 2322 
L 750 4666 
L 3219 4666 
z
" transform="scale(0.015625)"/>
     </defs>
     <use xlink:href="#DejaVuSerif-77"/>
     <use xlink:href="#DejaVuSerif-61" transform="translate(85.595703 0)"/>
     <use xlink:href="#DejaVuSerif-72" transform="translate(145.214844 0)"/>
     <use xlink:href="#DejaVuSerif-70" transform="translate(193.017578 0)"/>
     <use xlink:href="#DejaVuSerif-20" transform="translate(257.03125 0)"/>
     <use xlink:href="#DejaVuSerif-35" transform="translate(288.818359 0)"/>
    </g>
   </g>
   <g id="text_10">
    <!-- … 8 warps -->
    <g style="fill: #444444" transform="translate(507.971563 243.132969) scale(0.11 -0.11)">
     <defs>
      <path id="DejaVuSerif-2026" d="M 4916 325 
Q 4916 500 5036 622 
Q 5156 744 5331 744 
Q 5503 744 5625 622 
Q 5747 500 5747 325 
Q 5747 153 5625 31 
Q 5503 -91 5331 -91 
Q 5153 -91 5034 29 
Q 4916 150 4916 325 
z
M 2784 325 
Q 2784 500 2904 622 
Q 3025 744 3200 744 
Q 3372 744 3494 622 
Q 3616 500 3616 325 
Q 3616 153 3494 31 
Q 3372 -91 3200 -91 
Q 3022 -91 2903 29 
Q 2784 150 2784 325 
z
M 653 325 
Q 653 500 773 622 
Q 894 744 1069 744 
Q 1241 744 1362 622 
Q 1484 500 1484 325 
Q 1484 153 1362 31 
Q 1241 -91 1069 -91 
Q 891 -91 772 29 
Q 653 150 653 325 
z
" transform="scale(0.015625)"/>
      <path id="DejaVuSerif-38" d="M 2981 1275 
Q 2981 1775 2732 2051 
Q 2484 2328 2034 2328 
Q 1584 2328 1336 2051 
Q 1088 1775 1088 1275 
Q 1088 772 1336 495 
Q 1584 219 2034 219 
Q 2484 219 2732 495 
Q 2981 772 2981 1275 
z
M 2853 3541 
Q 2853 3966 2637 4203 
Q 2422 4441 2034 4441 
Q 1650 4441 1433 4203 
Q 1216 3966 1216 3541 
Q 1216 3113 1433 2875 
Q 1650 2638 2034 2638 
Q 2422 2638 2637 2875 
Q 2853 3113 2853 3541 
z
M 2516 2484 
Q 3047 2413 3344 2092 
Q 3641 1772 3641 1275 
Q 3641 619 3225 264 
Q 2809 -91 2034 -91 
Q 1263 -91 845 264 
Q 428 619 428 1275 
Q 428 1772 725 2092 
Q 1022 2413 1556 2484 
Q 1084 2569 832 2842 
Q 581 3116 581 3541 
Q 581 4103 968 4426 
Q 1356 4750 2034 4750 
Q 2713 4750 3100 4426 
Q 3488 4103 3488 3541 
Q 3488 3116 3236 2842 
Q 2984 2569 2516 2484 
z
" transform="scale(0.015625)"/>
     </defs>
     <use xlink:href="#DejaVuSerif-2026"/>
     <use xlink:href="#DejaVuSerif-20" transform="translate(100 0)"/>
     <use xlink:href="#DejaVuSerif-38" transform="translate(131.787109 0)"/>
     <use xlink:href="#DejaVuSerif-20" transform="translate(195.410156 0)"/>
     <use xlink:href="#DejaVuSerif-77" transform="translate(227.197266 0)"/>
     <use xlink:href="#DejaVuSerif-61" transform="translate(312.792969 0)"/>
     <use xlink:href="#DejaVuSerif-72" transform="translate(372.412109 0)"/>
     <use xlink:href="#DejaVuSerif-70" transform="translate(420.214844 0)"/>
     <use xlink:href="#DejaVuSerif-73" transform="translate(484.228516 0)"/>
    </g>
   </g>
   <g id="patch_75">
    <path d="M 299.302135 179.574282 
Q 290.621393 200.408063 282.542669 219.797 
" style="fill: none; stroke: #444444; stroke-width: 1.4; stroke-linecap: round"/>
    <path d="M 287.958054 215.120077 
L 282.542669 219.797 
L 282.050362 212.658538 
z
" style="fill: #444444; stroke: #444444; stroke-width: 1.4; stroke-linecap: round"/>
   </g>
   <g id="text_11">
    <!-- shared memory tree -->
    <g transform="translate(207.817031 319.192422) scale(0.13 -0.13)">
     <defs>
      <path id="DejaVuSerif-Bold-73" d="M 300 97 
L 300 1025 
L 653 1025 
Q 697 653 931 458 
Q 1166 263 1569 263 
Q 1906 263 2086 380 
Q 2266 497 2266 716 
Q 2266 916 2152 1025 
Q 2038 1134 1709 1216 
L 1253 1331 
Q 738 1459 506 1698 
Q 275 1938 275 2344 
Q 275 2884 650 3148 
Q 1025 3413 1806 3413 
Q 2100 3413 2433 3364 
Q 2766 3316 3169 3213 
L 3169 2375 
L 2816 2375 
Q 2788 2716 2573 2887 
Q 2359 3059 1959 3059 
Q 1622 3059 1448 2951 
Q 1275 2844 1275 2638 
Q 1275 2469 1375 2372 
Q 1475 2275 1734 2209 
L 2188 2094 
Q 2841 1928 3091 1684 
Q 3341 1441 3341 1006 
Q 3341 444 2939 176 
Q 2538 -91 1691 -91 
Q 1381 -91 1034 -44 
Q 688 3 300 97 
z
" transform="scale(0.015625)"/>
      <path id="DejaVuSerif-Bold-68" d="M 219 0 
L 219 378 
L 691 378 
L 691 4488 
L 197 4488 
L 197 4863 
L 1797 4863 
L 1797 2853 
Q 1997 3150 2253 3281 
Q 2509 3413 2900 3413 
Q 3459 3413 3745 3083 
Q 4031 2753 4031 2113 
L 4031 378 
L 4506 378 
L 4506 0 
L 2522 0 
L 2522 378 
L 2925 378 
L 2925 2144 
Q 2925 2566 2817 2730 
Q 2709 2894 2444 2894 
Q 2109 2894 1953 2648 
Q 1797 2403 1797 1869 
L 1797 378 
L 2203 378 
L 2203 0 
L 219 0 
z
" transform="scale(0.015625)"/>
      <path id="DejaVuSerif-Bold-72" d="M 3438 3359 
L 3438 2369 
L 3084 2369 
Q 3066 2634 2941 2764 
Q 2816 2894 2578 2894 
Q 2216 2894 2006 2575 
Q 1797 2256 1797 1691 
L 1797 378 
L 2400 378 
L 2400 0 
L 219 0 
L 219 378 
L 691 378 
L 691 2944 
L 184 2944 
L 184 3322 
L 1797 3322 
L 1797 2731 
Q 1959 3078 2226 3245 
Q 2494 3413 2881 3413 
Q 2978 3413 3117 3398 
Q 3256 3384 3438 3359 
z
" transform="scale(0.015625)"/>
      <path id="DejaVuSerif-Bold-64" d="M 2747 1497 
L 2747 1825 
Q 2747 2406 2597 2665 
Q 2447 2925 2119 2925 
Q 1775 2925 1636 2651 
Q 1497 2378 1497 1663 
Q 1497 947 1637 672 
Q 1778 397 2119 397 
Q 2447 397 2597 656 
Q 2747 916 2747 1497 
z
M 3853 378 
L 4325 378 
L 4325 0 
L 2747 0 
L 2747 422 
Q 2606 163 2367 36 
Q 2128 -91 1778 -91 
Q 1072 -91 667 378 
Q 263 847 263 1663 
Q 263 2481 667 2947 
Q 1072 3413 1778 3413 
Q 2128 3413 2367 3286 
Q 2606 3159 2747 2900 
L 2747 4488 
L 2272 4488 
L 2272 4863 
L 3853 4863 
L 3853 378 
z
" transform="scale(0.015625)"/>
      <path id="DejaVuSerif-Bold-6d" d="M 3884 2778 
Q 4116 3109 4384 3261 
Q 4653 3413 5013 3413 
Q 5584 3413 5867 3089 
Q 6150 2766 6150 2113 
L 6150 378 
L 6625 378 
L 6625 0 
L 4647 0 
L 4647 378 
L 5044 378 
L 5044 1947 
Q 5044 2569 4948 2731 
Q 4853 2894 4594 2894 
Q 4300 2894 4137 2667 
Q 3975 2441 3975 2022 
L 3975 378 
L 4372 378 
L 4372 0 
L 2472 0 
L 2472 378 
L 2869 378 
L 2869 1947 
Q 2869 2569 2772 2731 
Q 2675 2894 2419 2894 
Q 2122 2894 1959 2667 
Q 1797 2441 1797 2022 
L 1797 378 
L 2194 378 
L 2194 0 
L 219 0 
L 219 378 
L 691 378 
L 691 2944 
L 219 2944 
L 219 3322 
L 1797 3322 
L 1797 2853 
Q 1991 3144 2241 3278 
Q 2491 3413 2834 3413 
Q 3241 3413 3494 3258 
Q 3747 3103 3884 2778 
z
" transform="scale(0.015625)"/>
      <path id="DejaVuSerif-Bold-6f" d="M 2138 263 
Q 2488 263 2630 563 
Q 2772 863 2772 1663 
Q 2772 2463 2631 2761 
Q 2491 3059 2138 3059 
Q 1784 3059 1640 2757 
Q 1497 2456 1497 1663 
Q 1497 869 1640 566 
Q 1784 263 2138 263 
z
M 2138 -91 
Q 1259 -91 761 376 
Q 263 844 263 1663 
Q 263 2484 761 2948 
Q 1259 3413 2138 3413 
Q 3019 3413 3516 2948 
Q 4013 2484 4013 1663 
Q 4013 844 3514 376 
Q 3016 -91 2138 -91 
z
" transform="scale(0.015625)"/>
      <path id="DejaVuSerif-Bold-79" d="M 1997 -750 
Q 1847 -1116 1634 -1269 
Q 1422 -1422 1063 -1422 
Q 909 -1422 721 -1387 
Q 534 -1353 313 -1288 
L 313 -594 
L 666 -597 
Q 675 -838 779 -953 
Q 884 -1069 1094 -1069 
Q 1297 -1069 1422 -958 
Q 1547 -847 1672 -538 
L 1722 -422 
L 275 2944 
L -84 2944 
L -84 3322 
L 1831 3322 
L 1831 2944 
L 1434 2944 
L 2278 978 
L 3066 2944 
L 2625 2944 
L 2625 3322 
L 3872 3322 
L 3872 2944 
L 3469 2944 
L 1997 -750 
z
" transform="scale(0.015625)"/>
      <path id="DejaVuSerif-Bold-74" d="M 634 2944 
L 153 2944 
L 153 3322 
L 634 3322 
L 634 4353 
L 1741 4353 
L 1741 3322 
L 2663 3322 
L 2663 2944 
L 1741 2944 
L 1741 909 
Q 1741 475 1809 369 
Q 1878 263 2059 263 
Q 2259 263 2356 397 
Q 2453 531 2459 813 
L 2925 813 
Q 2897 313 2651 111 
Q 2406 -91 1806 -91 
Q 1122 -91 878 123 
Q 634 338 634 909 
L 634 2944 
z
" transform="scale(0.015625)"/>
     </defs>
     <use xlink:href="#DejaVuSerif-Bold-73"/>
     <use xlink:href="#DejaVuSerif-Bold-68" transform="translate(56.298828 0)"/>
     <use xlink:href="#DejaVuSerif-Bold-61" transform="translate(129.003906 0)"/>
     <use xlink:href="#DejaVuSerif-Bold-72" transform="translate(193.798828 0)"/>
     <use xlink:href="#DejaVuSerif-Bold-65" transform="translate(246.484375 0)"/>
     <use xlink:href="#DejaVuSerif-Bold-64" transform="translate(310.107422 0)"/>
     <use xlink:href="#DejaVuSerif-Bold-20" transform="translate(380.029297 0)"/>
     <use xlink:href="#DejaVuSerif-Bold-6d" transform="translate(414.84375 0)"/>
     <use xlink:href="#DejaVuSerif-Bold-65" transform="translate(520.654297 0)"/>
     <use xlink:href="#DejaVuSerif-Bold-6d" transform="translate(584.277344 0)"/>
     <use xlink:href="#DejaVuSerif-Bold-6f" transform="translate(690.087891 0)"/>
     <use xlink:href="#DejaVuSerif-Bold-72" transform="translate(756.787109 0)"/>
     <use xlink:href="#DejaVuSerif-Bold-79" transform="translate(809.472656 0)"/>
     <use xlink:href="#DejaVuSerif-Bold-20" transform="translate(867.578125 0)"/>
     <use xlink:href="#DejaVuSerif-Bold-74" transform="translate(902.392578 0)"/>
     <use xlink:href="#DejaVuSerif-Bold-72" transform="translate(948.583984 0)"/>
     <use xlink:href="#DejaVuSerif-Bold-65" transform="translate(1001.269531 0)"/>
     <use xlink:href="#DejaVuSerif-Bold-65" transform="translate(1064.892578 0)"/>
    </g>
   </g>
   <g id="patch_76">
    <path d="M 94.118203 253.79485 
Q 186.673025 276.008007 278.140685 297.960246 
" style="fill: none; stroke: #666666; stroke-linecap: round"/>
    <path d="M 272.6642 293.355019 
L 278.140685 297.960246 
L 271.170613 299.578298 
z
" style="fill: #666666; stroke: #666666; stroke-linecap: round"/>
   </g>
   <g id="patch_77">
    <path d="M 162.083105 254.029485 
Q 220.691504 276.007634 278.253055 297.593216 
" style="fill: none; stroke: #666666; stroke-linecap: round"/>
    <path d="M 273.384143 292.349772 
L 278.253055 297.593216 
L 271.136953 298.342279 
z
" style="fill: #666666; stroke: #666666; stroke-linecap: round"/>
   </g>
   <g id="patch_78">
    <path d="M 229.772883 254.631646 
Q 254.71147 276.007577 278.801182 296.655901 
" style="fill: none; stroke: #666666; stroke-linecap: round"/>
    <path d="M 276.024472 290.061215 
L 278.801182 296.655901 
L 271.859407 294.920457 
z
" style="fill: #666666; stroke: #666666; stroke-linecap: round"/>
   </g>
   <g id="patch_79">
    <path d="M 295.659409 255.224116 
Q 288.731612 276.007509 282.157368 295.730241 
" style="fill: none; stroke: #666666; stroke-linecap: round"/>
    <path d="M 287.217012 290.670597 
L 282.157368 295.730241 
L 281.145439 288.646739 
z
" style="fill: #666666; stroke: #666666; stroke-linecap: round"/>
   </g>
   <g id="patch_80">
    <path d="M 362.577914 254.284192 
Q 322.752947 276.006901 283.909497 297.194237 
" style="fill: none; stroke: #666666; stroke-linecap: round"/>
    <path d="M 291.060356 296.93885 
L 283.909497 297.194237 
L 287.995702 291.320318 
z
" style="fill: #666666; stroke: #666666; stroke-linecap: round"/>
   </g>
   <g id="patch_81">
    <path d="M 430.456646 253.902131 
Q 356.773104 276.007194 284.160445 297.790992 
" style="fill: none; stroke: #666666; stroke-linecap: round"/>
    <path d="M 291.210046 299.017009 
L 284.160445 297.790992 
L 289.37102 292.886921 
z
" style="fill: #666666; stroke: #666666; stroke-linecap: round"/>
   </g>
   <g id="text_12">
    <!-- (2)–(3) lane-0 of -->
    <g style="fill: #444444" transform="translate(507.971563 312.574172) scale(0.11 -0.11)">
     <defs>
      <path id="DejaVuSerif-Italic-32" d="M 1050 3553 
L 700 3553 
L 863 4384 
Q 1231 4563 1589 4656 
Q 1947 4750 2272 4750 
Q 3000 4750 3353 4397 
Q 3706 4044 3588 3438 
Q 3456 2753 2313 1800 
Q 2225 1728 2178 1691 
L 772 513 
L 2719 513 
L 2831 1088 
L 3197 1088 
L 2984 0 
L -25 0 
L 41 341 
L 1731 1753 
Q 2291 2222 2567 2614 
Q 2844 3006 2928 3438 
Q 3019 3909 2825 4175 
Q 2631 4441 2200 4441 
Q 1753 4441 1467 4219 
Q 1181 3997 1050 3553 
z
" transform="scale(0.015625)"/>
      <path id="DejaVuSerif-Italic-2013" d="M 322 1906 
L 2959 1906 
L 2878 1491 
L 241 1491 
L 322 1906 
z
" transform="scale(0.015625)"/>
      <path id="DejaVuSerif-Italic-33" d="M 1038 4469 
Q 1431 4606 1781 4678 
Q 2131 4750 2425 4750 
Q 3109 4750 3436 4454 
Q 3763 4159 3659 3634 
Q 3578 3213 3258 2930 
Q 2938 2647 2431 2547 
Q 2988 2466 3241 2130 
Q 3494 1794 3388 1259 
Q 3263 606 2755 257 
Q 2247 -91 1422 -91 
Q 1056 -91 723 -12 
Q 391 66 78 225 
L 253 1131 
L 603 1131 
Q 547 681 775 450 
Q 1003 219 1497 219 
Q 1975 219 2304 495 
Q 2634 772 2728 1253 
Q 2834 1803 2604 2086 
Q 2375 2369 1825 2369 
L 1528 2369 
L 1591 2688 
L 1747 2688 
Q 2294 2688 2611 2914 
Q 2928 3141 3019 3597 
Q 3097 4006 2914 4223 
Q 2731 4441 2309 4441 
Q 1888 4441 1616 4241 
Q 1344 4041 1228 3647 
L 878 3647 
L 1038 4469 
z
" transform="scale(0.015625)"/>
      <path id="DejaVuSerif-Italic-2d" d="M 328 1959 
L 1928 1959 
L 1834 1472 
L 234 1472 
L 328 1959 
z
" transform="scale(0.015625)"/>
     </defs>
     <use xlink:href="#DejaVuSerif-Italic-28"/>
     <use xlink:href="#DejaVuSerif-Italic-32" transform="translate(39.013672 0)"/>
     <use xlink:href="#DejaVuSerif-Italic-29" transform="translate(102.636719 0)"/>
     <use xlink:href="#DejaVuSerif-Italic-2013" transform="translate(141.650391 0)"/>
     <use xlink:href="#DejaVuSerif-Italic-28" transform="translate(191.650391 0)"/>
     <use xlink:href="#DejaVuSerif-Italic-33" transform="translate(230.664062 0)"/>
     <use xlink:href="#DejaVuSerif-Italic-29" transform="translate(294.287109 0)"/>
     <use xlink:href="#DejaVuSerif-Italic-20" transform="translate(333.300781 0)"/>
     <use xlink:href="#DejaVuSerif-Italic-6c" transform="translate(365.087891 0)"/>
     <use xlink:href="#DejaVuSerif-Italic-61" transform="translate(397.070312 0)"/>
     <use xlink:href="#DejaVuSerif-Italic-6e" transform="translate(456.689453 0)"/>
     <use xlink:href="#DejaVuSerif-Italic-65" transform="translate(521.09375 0)"/>
     <use xlink:href="#DejaVuSerif-Italic-2d" transform="translate(580.273438 0)"/>
     <use xlink:href="#DejaVuSerif-Italic-30" transform="translate(614.0625 0)"/>
     <use xlink:href="#DejaVuSerif-Italic-20" transform="translate(677.685547 0)"/>
     <use xlink:href="#DejaVuSerif-Italic-6f" transform="translate(709.472656 0)"/>
     <use xlink:href="#DejaVuSerif-Italic-66" transform="translate(769.677734 0)"/>
    </g>
    <!--      each warp writes -->
    <g style="fill: #444444" transform="translate(507.971563 324.891766) scale(0.11 -0.11)">
     <defs>
      <path id="DejaVuSerif-Italic-69" d="M 1009 4353 
Q 1038 4497 1163 4603 
Q 1288 4709 1434 4709 
Q 1578 4709 1663 4603 
Q 1728 4522 1728 4422 
Q 1728 4388 1719 4353 
Q 1691 4206 1567 4103 
Q 1444 4000 1297 4000 
Q 1150 4000 1066 4103 
Q 1003 4181 1003 4281 
Q 1003 4316 1009 4353 
z
M 963 331 
L 1506 331 
L 1444 0 
L 325 0 
L 903 2988 
L 353 2988 
L 419 3322 
L 1544 3322 
L 963 331 
z
" transform="scale(0.015625)"/>
      <path id="DejaVuSerif-Italic-74" d="M 856 2988 
L 350 2988 
L 416 3322 
L 922 3322 
L 1122 4353 
L 1700 4353 
L 1500 3322 
L 2581 3322 
L 2516 2988 
L 1434 2988 
L 1025 878 
Q 978 631 978 488 
Q 978 388 1000 338 
Q 1059 219 1278 219 
Q 1503 219 1633 351 
Q 1763 484 1825 781 
L 2259 781 
Q 2147 328 1884 118 
Q 1622 -91 1169 -91 
Q 672 -91 506 131 
Q 406 266 406 516 
Q 406 675 447 878 
L 856 2988 
z
" transform="scale(0.015625)"/>
     </defs>
     <use xlink:href="#DejaVuSerif-Italic-20"/>
     <use xlink:href="#DejaVuSerif-Italic-20" transform="translate(31.787109 0)"/>
     <use xlink:href="#DejaVuSerif-Italic-20" transform="translate(63.574219 0)"/>
     <use xlink:href="#DejaVuSerif-Italic-20" transform="translate(95.361328 0)"/>
     <use xlink:href="#DejaVuSerif-Italic-20" transform="translate(127.148438 0)"/>
     <use xlink:href="#DejaVuSerif-Italic-65" transform="translate(158.935547 0)"/>
     <use xlink:href="#DejaVuSerif-Italic-61" transform="translate(218.115234 0)"/>
     <use xlink:href="#DejaVuSerif-Italic-63" transform="translate(277.734375 0)"/>
     <use xlink:href="#DejaVuSerif-Italic-68" transform="translate(333.740234 0)"/>
     <use xlink:href="#DejaVuSerif-Italic-20" transform="translate(398.144531 0)"/>
     <use xlink:href="#DejaVuSerif-Italic-77" transform="translate(429.931641 0)"/>
     <use xlink:href="#DejaVuSerif-Italic-61" transform="translate(515.527344 0)"/>
     <use xlink:href="#DejaVuSerif-Italic-72" transform="translate(575.146484 0)"/>
     <use xlink:href="#DejaVuSerif-Italic-70" transform="translate(622.949219 0)"/>
     <use xlink:href="#DejaVuSerif-Italic-20" transform="translate(686.962891 0)"/>
     <use xlink:href="#DejaVuSerif-Italic-77" transform="translate(718.75 0)"/>
     <use xlink:href="#DejaVuSerif-Italic-72" transform="translate(804.345703 0)"/>
     <use xlink:href="#DejaVuSerif-Italic-69" transform="translate(852.148438 0)"/>
     <use xlink:href="#DejaVuSerif-Italic-74" transform="translate(884.130859 0)"/>
     <use xlink:href="#DejaVuSerif-Italic-65" transform="translate(924.316406 0)"/>
     <use xlink:href="#DejaVuSerif-Italic-73" transform="translate(983.496094 0)"/>
    </g>
   </g>
   <g id="text_13">
    <!-- atomicAdd  →  global d_sum -->
    <g transform="translate(179.789844 394.704062) scale(0.13 -0.13)">
     <defs>
      <path id="DejaVuSerif-Bold-69" d="M 588 4263 
Q 588 4516 763 4689 
Q 938 4863 1191 4863 
Q 1438 4863 1611 4689 
Q 1784 4516 1784 4263 
Q 1784 4016 1611 3842 
Q 1438 3669 1191 3669 
Q 938 3669 763 3841 
Q 588 4013 588 4263 
z
M 1797 378 
L 2272 378 
L 2272 0 
L 219 0 
L 219 378 
L 691 378 
L 691 2944 
L 219 2944 
L 219 3322 
L 1797 3322 
L 1797 378 
z
" transform="scale(0.015625)"/>
      <path id="DejaVuSerif-Bold-63" d="M 3609 1038 
Q 3491 469 3123 189 
Q 2756 -91 2125 -91 
Q 1238 -91 750 368 
Q 263 828 263 1663 
Q 263 2488 744 2950 
Q 1225 3413 2081 3413 
Q 2428 3413 2781 3347 
Q 3134 3281 3500 3150 
L 3500 2228 
L 3150 2228 
Q 3100 2650 2903 2854 
Q 2706 3059 2350 3059 
Q 1888 3059 1692 2746 
Q 1497 2434 1497 1663 
Q 1497 909 1687 586 
Q 1878 263 2309 263 
Q 2644 263 2845 463 
Q 3047 663 3091 1038 
L 3609 1038 
z
" transform="scale(0.015625)"/>
      <path id="DejaVuSerif-Bold-41" d="M -50 0 
L -50 378 
L 331 378 
L 2088 4666 
L 2834 4666 
L 4594 378 
L 5038 378 
L 5038 0 
L 2853 0 
L 2853 378 
L 3309 378 
L 2925 1331 
L 1172 1331 
L 781 378 
L 1338 378 
L 1338 0 
L -50 0 
z
M 1325 1709 
L 2772 1709 
L 2053 3494 
L 1325 1709 
z
" transform="scale(0.015625)"/>
      <path id="DejaVuSerif-Bold-2192" d="M 366 1725 
L 366 2413 
L 4066 2413 
L 3659 3375 
L 3822 3375 
L 5125 2084 
L 5125 2053 
L 3822 763 
L 3659 763 
L 4066 1725 
L 366 1725 
z
" transform="scale(0.015625)"/>
      <path id="DejaVuSerif-Bold-67" d="M 3853 2944 
L 3853 44 
Q 3853 -656 3354 -1039 
Q 2856 -1422 1947 -1422 
Q 1616 -1422 1275 -1370 
Q 934 -1319 575 -1216 
L 575 -422 
L 928 -422 
Q 975 -750 1192 -909 
Q 1409 -1069 1813 -1069 
Q 2325 -1069 2536 -823 
Q 2747 -578 2747 44 
L 2747 422 
Q 2606 163 2367 36 
Q 2128 -91 1778 -91 
Q 1072 -91 667 378 
Q 263 847 263 1663 
Q 263 2481 667 2947 
Q 1072 3413 1778 3413 
Q 2128 3413 2367 3286 
Q 2606 3159 2747 2900 
L 2747 3322 
L 4325 3322 
L 4325 2944 
L 3853 2944 
z
M 2747 1825 
Q 2747 2406 2597 2665 
Q 2447 2925 2119 2925 
Q 1775 2925 1636 2651 
Q 1497 2378 1497 1663 
Q 1497 947 1637 672 
Q 1778 397 2119 397 
Q 2447 397 2597 656 
Q 2747 916 2747 1497 
L 2747 1825 
z
" transform="scale(0.015625)"/>
      <path id="DejaVuSerif-Bold-62" d="M 622 378 
L 622 4488 
L 147 4488 
L 147 4863 
L 1728 4863 
L 1728 2900 
Q 1869 3159 2106 3286 
Q 2344 3413 2694 3413 
Q 3403 3413 3811 2945 
Q 4219 2478 4219 1663 
Q 4219 847 3811 378 
Q 3403 -91 2694 -91 
Q 2344 -91 2106 36 
Q 1869 163 1728 422 
L 1728 0 
L 147 0 
L 147 378 
L 622 378 
z
M 1728 1497 
Q 1728 916 1876 656 
Q 2025 397 2356 397 
Q 2697 397 2836 672 
Q 2975 947 2975 1663 
Q 2975 2378 2836 2651 
Q 2697 2925 2356 2925 
Q 2025 2925 1876 2665 
Q 1728 2406 1728 1825 
L 1728 1497 
z
" transform="scale(0.015625)"/>
      <path id="DejaVuSerif-Bold-5f" d="M 3200 -916 
L 3200 -1509 
L 0 -1509 
L 0 -916 
L 3200 -916 
z
" transform="scale(0.015625)"/>
      <path id="DejaVuSerif-Bold-75" d="M 3963 3322 
L 3963 378 
L 4434 378 
L 4434 0 
L 2853 0 
L 2853 469 
Q 2656 172 2400 40 
Q 2144 -91 1753 -91 
Q 1194 -91 908 239 
Q 622 569 622 1209 
L 622 2944 
L 147 2944 
L 147 3322 
L 1728 3322 
L 1728 1381 
Q 1728 763 1831 595 
Q 1934 428 2209 428 
Q 2544 428 2698 675 
Q 2853 922 2853 1459 
L 2853 2944 
L 2450 2944 
L 2450 3322 
L 3963 3322 
z
" transform="scale(0.015625)"/>
     </defs>
     <use xlink:href="#DejaVuSerif-Bold-61"/>
     <use xlink:href="#DejaVuSerif-Bold-74" transform="translate(64.794922 0)"/>
     <use xlink:href="#DejaVuSerif-Bold-6f" transform="translate(110.986328 0)"/>
     <use xlink:href="#DejaVuSerif-Bold-6d" transform="translate(177.685547 0)"/>
     <use xlink:href="#DejaVuSerif-Bold-69" transform="translate(283.496094 0)"/>
     <use xlink:href="#DejaVuSerif-Bold-63" transform="translate(321.484375 0)"/>
     <use xlink:href="#DejaVuSerif-Bold-41" transform="translate(382.373047 0)"/>
     <use xlink:href="#DejaVuSerif-Bold-64" transform="translate(459.960938 0)"/>
     <use xlink:href="#DejaVuSerif-Bold-64" transform="translate(529.882812 0)"/>
     <use xlink:href="#DejaVuSerif-Bold-20" transform="translate(599.804688 0)"/>
     <use xlink:href="#DejaVuSerif-Bold-20" transform="translate(634.619141 0)"/>
     <use xlink:href="#DejaVuSerif-Bold-2192" transform="translate(669.433594 0)"/>
     <use xlink:href="#DejaVuSerif-Bold-20" transform="translate(753.222656 0)"/>
     <use xlink:href="#DejaVuSerif-Bold-20" transform="translate(788.037109 0)"/>
     <use xlink:href="#DejaVuSerif-Bold-67" transform="translate(822.851562 0)"/>
     <use xlink:href="#DejaVuSerif-Bold-6c" transform="translate(892.773438 0)"/>
     <use xlink:href="#DejaVuSerif-Bold-6f" transform="translate(930.761719 0)"/>
     <use xlink:href="#DejaVuSerif-Bold-62" transform="translate(997.460938 0)"/>
     <use xlink:href="#DejaVuSerif-Bold-61" transform="translate(1067.382812 0)"/>
     <use xlink:href="#DejaVuSerif-Bold-6c" transform="translate(1132.177734 0)"/>
     <use xlink:href="#DejaVuSerif-Bold-20" transform="translate(1170.166016 0)"/>
     <use xlink:href="#DejaVuSerif-Bold-64" transform="translate(1204.980469 0)"/>
     <use xlink:href="#DejaVuSerif-Bold-5f" transform="translate(1274.902344 0)"/>
     <use xlink:href="#DejaVuSerif-Bold-73" transform="translate(1324.902344 0)"/>
     <use xlink:href="#DejaVuSerif-Bold-75" transform="translate(1381.201172 0)"/>
     <use xlink:href="#DejaVuSerif-Bold-6d" transform="translate(1453.90625 0)"/>
    </g>
   </g>
   <g id="patch_82">
    <path d="M 281.171562 334.708629 
Q 281.171562 352.552488 281.171562 368.607492 
" style="fill: none; stroke: #aa3333; stroke-width: 1.6; stroke-linecap: round"/>
    <path d="M 284.371562 362.207492 
L 281.171562 368.607492 
L 277.971563 362.207492 
z
" style="fill: #aa3333; stroke: #aa3333; stroke-width: 1.6; stroke-linecap: round"/>
   </g>
   <g id="text_14">
    <!-- (4) one atomic -->
    <g style="fill: #444444" transform="translate(507.971563 388.174172) scale(0.11 -0.11)">
     <defs>
      <path id="DejaVuSerif-Italic-34" d="M 2084 1581 
L 2566 4063 
L 491 1581 
L 2084 1581 
z
M 3150 0 
L 1025 0 
L 1091 331 
L 1841 331 
L 2019 1247 
L -19 1247 
L 47 1588 
L 2706 4750 
L 3325 4750 
L 2709 1581 
L 3600 1581 
L 3534 1247 
L 2644 1247 
L 2466 331 
L 3216 331 
L 3150 0 
z
" transform="scale(0.015625)"/>
     </defs>
     <use xlink:href="#DejaVuSerif-Italic-28"/>
     <use xlink:href="#DejaVuSerif-Italic-34" transform="translate(39.013672 0)"/>
     <use xlink:href="#DejaVuSerif-Italic-29" transform="translate(102.636719 0)"/>
     <use xlink:href="#DejaVuSerif-Italic-20" transform="translate(141.650391 0)"/>
     <use xlink:href="#DejaVuSerif-Italic-6f" transform="translate(173.4375 0)"/>
     <use xlink:href="#DejaVuSerif-Italic-6e" transform="translate(233.642578 0)"/>
     <use xlink:href="#DejaVuSerif-Italic-65" transform="translate(298.046875 0)"/>
     <use xlink:href="#DejaVuSerif-Italic-20" transform="translate(357.226562 0)"/>
     <use xlink:href="#DejaVuSerif-Italic-61" transform="translate(389.013672 0)"/>
     <use xlink:href="#DejaVuSerif-Italic-74" transform="translate(448.632812 0)"/>
     <use xlink:href="#DejaVuSerif-Italic-6f" transform="translate(488.818359 0)"/>
     <use xlink:href="#DejaVuSerif-Italic-6d" transform="translate(549.023438 0)"/>
     <use xlink:href="#DejaVuSerif-Italic-69" transform="translate(643.847656 0)"/>
     <use xlink:href="#DejaVuSerif-Italic-63" transform="translate(675.830078 0)"/>
    </g>
    <!--      per block -->
    <g style="fill: #444444" transform="translate(507.971563 400.491766) scale(0.11 -0.11)">
     <defs>
      <path id="DejaVuSerif-Italic-62" d="M 1153 4531 
L 600 4531 
L 666 4863 
L 1794 4863 
L 1394 2803 
Q 1622 3116 1912 3264 
Q 2203 3413 2588 3413 
Q 3200 3413 3494 2928 
Q 3688 2609 3688 2163 
Q 3688 1928 3634 1663 
Q 3481 881 3000 395 
Q 2519 -91 1906 -91 
Q 1522 -91 1289 57 
Q 1056 206 950 519 
L 850 0 
L 275 0 
L 1153 4531 
z
M 1141 1497 
Q 1091 1250 1091 1053 
Q 1091 769 1191 581 
Q 1359 269 1797 269 
Q 2238 269 2533 622 
Q 2828 975 2963 1663 
Q 3025 1978 3025 2225 
Q 3025 2513 2938 2703 
Q 2781 3053 2338 3053 
Q 1900 3053 1609 2737 
Q 1319 2422 1203 1825 
L 1141 1497 
z
" transform="scale(0.015625)"/>
      <path id="DejaVuSerif-Italic-6b" d="M 2113 2075 
L 3034 331 
L 3513 331 
L 3450 0 
L 2528 0 
L 1622 1697 
L 1088 1275 
L 841 0 
L 266 0 
L 1147 4531 
L 594 4531 
L 656 4863 
L 1784 4863 
L 1169 1697 
L 2822 2988 
L 2344 2988 
L 2406 3322 
L 3341 3322 
L 3278 2988 
L 2113 2075 
z
" transform="scale(0.015625)"/>
     </defs>
     <use xlink:href="#DejaVuSerif-Italic-20"/>
     <use xlink:href="#DejaVuSerif-Italic-20" transform="translate(31.787109 0)"/>
     <use xlink:href="#DejaVuSerif-Italic-20" transform="translate(63.574219 0)"/>
     <use xlink:href="#DejaVuSerif-Italic-20" transform="translate(95.361328 0)"/>
     <use xlink:href="#DejaVuSerif-Italic-20" transform="translate(127.148438 0)"/>
     <use xlink:href="#DejaVuSerif-Italic-70" transform="translate(158.935547 0)"/>
     <use xlink:href="#DejaVuSerif-Italic-65" transform="translate(222.949219 0)"/>
     <use xlink:href="#DejaVuSerif-Italic-72" transform="translate(282.128906 0)"/>
     <use xlink:href="#DejaVuSerif-Italic-20" transform="translate(329.931641 0)"/>
     <use xlink:href="#DejaVuSerif-Italic-62" transform="translate(361.71875 0)"/>
     <use xlink:href="#DejaVuSerif-Italic-6c" transform="translate(425.732422 0)"/>
     <use xlink:href="#DejaVuSerif-Italic-6f" transform="translate(457.714844 0)"/>
     <use xlink:href="#DejaVuSerif-Italic-63" transform="translate(517.919922 0)"/>
     <use xlink:href="#DejaVuSerif-Italic-6b" transform="translate(573.925781 0)"/>
    </g>
   </g>
   <g id="text_15">
    <!-- Block-level reduction: warp shuffle → shared memory → one atomic -->
    <g transform="translate(43.771953 22.197656) scale(0.15 -0.15)">
     <defs>
      <path id="DejaVuSerif-42" d="M 1581 331 
L 2516 331 
Q 3078 331 3337 575 
Q 3597 819 3597 1350 
Q 3597 1878 3339 2120 
Q 3081 2363 2516 2363 
L 1581 2363 
L 1581 331 
z
M 1581 2694 
L 2375 2694 
Q 2888 2694 3123 2891 
Q 3359 3088 3359 3513 
Q 3359 3941 3123 4136 
Q 2888 4331 2375 4331 
L 1581 4331 
L 1581 2694 
z
M 353 0 
L 353 331 
L 947 331 
L 947 4331 
L 353 4331 
L 353 4666 
L 2656 4666 
Q 3363 4666 3720 4377 
Q 4078 4088 4078 3513 
Q 4078 3097 3829 2850 
Q 3581 2603 3103 2547 
Q 3697 2472 4005 2167 
Q 4313 1863 4313 1350 
Q 4313 656 3875 328 
Q 3438 0 2509 0 
L 353 0 
z
" transform="scale(0.015625)"/>
      <path id="DejaVuSerif-6f" d="M 1925 219 
Q 2388 219 2623 584 
Q 2859 950 2859 1663 
Q 2859 2375 2623 2739 
Q 2388 3103 1925 3103 
Q 1463 3103 1227 2739 
Q 991 2375 991 1663 
Q 991 950 1228 584 
Q 1466 219 1925 219 
z
M 1925 -91 
Q 1200 -91 759 389 
Q 319 869 319 1663 
Q 319 2456 758 2934 
Q 1197 3413 1925 3413 
Q 2653 3413 3092 2934 
Q 3531 2456 3531 1663 
Q 3531 869 3092 389 
Q 2653 -91 1925 -91 
z
" transform="scale(0.015625)"/>
      <path id="DejaVuSerif-63" d="M 3291 997 
Q 3169 466 2822 187 
Q 2475 -91 1925 -91 
Q 1200 -91 759 389 
Q 319 869 319 1663 
Q 319 2459 759 2936 
Q 1200 3413 1925 3413 
Q 2241 3413 2553 3339 
Q 2866 3266 3181 3116 
L 3181 2266 
L 2847 2266 
Q 2781 2703 2561 2903 
Q 2341 3103 1931 3103 
Q 1466 3103 1228 2742 
Q 991 2381 991 1663 
Q 991 944 1227 581 
Q 1463 219 1931 219 
Q 2303 219 2525 412 
Q 2747 606 2828 997 
L 3291 997 
z
" transform="scale(0.015625)"/>
      <path id="DejaVuSerif-6b" d="M 1831 0 
L 219 0 
L 219 331 
L 738 331 
L 738 4531 
L 184 4531 
L 184 4863 
L 1313 4863 
L 1313 1697 
L 2713 2988 
L 2234 2988 
L 2234 3322 
L 3738 3322 
L 3738 2988 
L 3169 2988 
L 2181 2075 
L 3444 331 
L 3922 331 
L 3922 0 
L 2284 0 
L 2284 331 
L 2759 331 
L 1766 1697 
L 1313 1275 
L 1313 331 
L 1831 331 
L 1831 0 
z
" transform="scale(0.015625)"/>
      <path id="DejaVuSerif-2d" d="M 281 1959 
L 1881 1959 
L 1881 1472 
L 281 1472 
L 281 1959 
z
" transform="scale(0.015625)"/>
      <path id="DejaVuSerif-76" d="M 1581 0 
L 359 2988 
L -19 2988 
L -19 3322 
L 1509 3322 
L 1509 2988 
L 978 2988 
L 1913 703 
L 2847 2988 
L 2350 2988 
L 2350 3322 
L 3597 3322 
L 3597 2988 
L 3225 2988 
L 2003 0 
L 1581 0 
z
" transform="scale(0.015625)"/>
      <path id="DejaVuSerif-64" d="M 3359 331 
L 3909 331 
L 3909 0 
L 2784 0 
L 2784 519 
Q 2616 206 2355 57 
Q 2094 -91 1709 -91 
Q 1097 -91 708 395 
Q 319 881 319 1663 
Q 319 2444 706 2928 
Q 1094 3413 1709 3413 
Q 2094 3413 2355 3264 
Q 2616 3116 2784 2803 
L 2784 4531 
L 2241 4531 
L 2241 4863 
L 3359 4863 
L 3359 331 
z
M 2784 1497 
L 2784 1825 
Q 2784 2422 2554 2737 
Q 2325 3053 1888 3053 
Q 1444 3053 1217 2703 
Q 991 2353 991 1663 
Q 991 975 1217 622 
Q 1444 269 1888 269 
Q 2325 269 2554 583 
Q 2784 897 2784 1497 
z
" transform="scale(0.015625)"/>
      <path id="DejaVuSerif-75" d="M 2266 3322 
L 3341 3322 
L 3341 331 
L 3884 331 
L 3884 0 
L 2766 0 
L 2766 588 
Q 2606 256 2353 82 
Q 2100 -91 1766 -91 
Q 1213 -91 952 223 
Q 691 538 691 1209 
L 691 2988 
L 172 2988 
L 172 3322 
L 1269 3322 
L 1269 1388 
Q 1269 781 1417 556 
Q 1566 331 1947 331 
Q 2347 331 2556 625 
Q 2766 919 2766 1478 
L 2766 2988 
L 2266 2988 
L 2266 3322 
z
" transform="scale(0.015625)"/>
      <path id="DejaVuSerif-74" d="M 691 2988 
L 184 2988 
L 184 3322 
L 691 3322 
L 691 4353 
L 1269 4353 
L 1269 3322 
L 2350 3322 
L 2350 2988 
L 1269 2988 
L 1269 878 
Q 1269 456 1350 337 
Q 1431 219 1650 219 
Q 1875 219 1978 351 
Q 2081 484 2088 781 
L 2522 781 
Q 2497 328 2275 118 
Q 2053 -91 1600 -91 
Q 1103 -91 897 129 
Q 691 350 691 878 
L 691 2988 
z
" transform="scale(0.015625)"/>
      <path id="DejaVuSerif-69" d="M 622 4353 
Q 622 4497 726 4603 
Q 831 4709 978 4709 
Q 1122 4709 1226 4603 
Q 1331 4497 1331 4353 
Q 1331 4206 1228 4103 
Q 1125 4000 978 4000 
Q 831 4000 726 4103 
Q 622 4206 622 4353 
z
M 1356 331 
L 1900 331 
L 1900 0 
L 231 0 
L 231 331 
L 781 331 
L 781 2988 
L 231 2988 
L 231 3322 
L 1356 3322 
L 1356 331 
z
" transform="scale(0.015625)"/>
      <path id="DejaVuSerif-3a" d="M 666 325 
Q 666 500 786 622 
Q 906 744 1081 744 
Q 1256 744 1376 622 
Q 1497 500 1497 325 
Q 1497 150 1378 29 
Q 1259 -91 1081 -91 
Q 903 -91 784 29 
Q 666 150 666 325 
z
M 666 2363 
Q 666 2538 786 2658 
Q 906 2778 1081 2778 
Q 1259 2778 1378 2659 
Q 1497 2541 1497 2363 
Q 1497 2184 1378 2065 
Q 1259 1947 1081 1947 
Q 906 1947 786 2067 
Q 666 2188 666 2363 
z
" transform="scale(0.015625)"/>
      <path id="DejaVuSerif-68" d="M 263 0 
L 263 331 
L 781 331 
L 781 4531 
L 231 4531 
L 231 4863 
L 1356 4863 
L 1356 2731 
Q 1516 3069 1770 3241 
Q 2025 3413 2363 3413 
Q 2913 3413 3172 3097 
Q 3431 2781 3431 2113 
L 3431 331 
L 3944 331 
L 3944 0 
L 2356 0 
L 2356 331 
L 2853 331 
L 2853 1931 
Q 2853 2541 2704 2764 
Q 2556 2988 2175 2988 
Q 1775 2988 1565 2697 
Q 1356 2406 1356 1850 
L 1356 331 
L 1856 331 
L 1856 0 
L 263 0 
z
" transform="scale(0.015625)"/>
      <path id="DejaVuSerif-66" d="M 2753 4078 
L 2450 4078 
Q 2447 4313 2317 4434 
Q 2188 4556 1941 4556 
Q 1619 4556 1487 4379 
Q 1356 4203 1356 3750 
L 1356 3322 
L 2284 3322 
L 2284 2988 
L 1356 2988 
L 1356 331 
L 2094 331 
L 2094 0 
L 231 0 
L 231 331 
L 781 331 
L 781 2988 
L 231 2988 
L 231 3322 
L 781 3322 
L 781 3738 
Q 781 4294 1070 4578 
Q 1359 4863 1919 4863 
Q 2128 4863 2337 4825 
Q 2547 4788 2753 4709 
L 2753 4078 
z
" transform="scale(0.015625)"/>
      <path id="DejaVuSerif-2192" d="M 366 2322 
L 4391 2322 
L 3788 3375 
L 3822 3375 
L 5125 2084 
L 5125 2053 
L 3822 763 
L 3788 763 
L 4391 1816 
L 366 1816 
L 366 2322 
z
" transform="scale(0.015625)"/>
      <path id="DejaVuSerif-6d" d="M 3316 2675 
Q 3481 3041 3739 3227 
Q 3997 3413 4341 3413 
Q 4863 3413 5119 3089 
Q 5375 2766 5375 2113 
L 5375 331 
L 5894 331 
L 5894 0 
L 4300 0 
L 4300 331 
L 4800 331 
L 4800 2047 
Q 4800 2556 4650 2772 
Q 4500 2988 4153 2988 
Q 3769 2988 3567 2697 
Q 3366 2406 3366 1850 
L 3366 331 
L 3866 331 
L 3866 0 
L 2291 0 
L 2291 331 
L 2791 331 
L 2791 2069 
Q 2791 2566 2641 2777 
Q 2491 2988 2144 2988 
Q 1759 2988 1557 2697 
Q 1356 2406 1356 1850 
L 1356 331 
L 1856 331 
L 1856 0 
L 263 0 
L 263 331 
L 781 331 
L 781 2994 
L 231 2994 
L 231 3322 
L 1356 3322 
L 1356 2731 
Q 1516 3063 1762 3238 
Q 2009 3413 2322 3413 
Q 2709 3413 2968 3220 
Q 3228 3028 3316 2675 
z
" transform="scale(0.015625)"/>
      <path id="DejaVuSerif-79" d="M 1381 -609 
L 1600 -56 
L 359 2988 
L -19 2988 
L -19 3322 
L 1509 3322 
L 1509 2988 
L 978 2988 
L 1913 703 
L 2847 2988 
L 2350 2988 
L 2350 3322 
L 3597 3322 
L 3597 2988 
L 3225 2988 
L 1703 -750 
Q 1547 -1138 1356 -1280 
Q 1166 -1422 819 -1422 
Q 672 -1422 517 -1397 
Q 363 -1372 206 -1325 
L 206 -691 
L 500 -691 
Q 519 -903 608 -995 
Q 697 -1088 884 -1088 
Q 1056 -1088 1161 -992 
Q 1266 -897 1381 -609 
z
" transform="scale(0.015625)"/>
     </defs>
     <use xlink:href="#DejaVuSerif-42"/>
     <use xlink:href="#DejaVuSerif-6c" transform="translate(73.486328 0)"/>
     <use xlink:href="#DejaVuSerif-6f" transform="translate(105.46875 0)"/>
     <use xlink:href="#DejaVuSerif-63" transform="translate(165.673828 0)"/>
     <use xlink:href="#DejaVuSerif-6b" transform="translate(221.679688 0)"/>
     <use xlink:href="#DejaVuSerif-2d" transform="translate(280.525391 0)"/>
     <use xlink:href="#DejaVuSerif-6c" transform="translate(314.314453 0)"/>
     <use xlink:href="#DejaVuSerif-65" transform="translate(346.296875 0)"/>
     <use xlink:href="#DejaVuSerif-76" transform="translate(405.476562 0)"/>
     <use xlink:href="#DejaVuSerif-65" transform="translate(461.970703 0)"/>
     <use xlink:href="#DejaVuSerif-6c" transform="translate(521.150391 0)"/>
     <use xlink:href="#DejaVuSerif-20" transform="translate(553.132812 0)"/>
     <use xlink:href="#DejaVuSerif-72" transform="translate(584.919922 0)"/>
     <use xlink:href="#DejaVuSerif-65" transform="translate(632.722656 0)"/>
     <use xlink:href="#DejaVuSerif-64" transform="translate(691.902344 0)"/>
     <use xlink:href="#DejaVuSerif-75" transform="translate(755.916016 0)"/>
     <use xlink:href="#DejaVuSerif-63" transform="translate(820.320312 0)"/>
     <use xlink:href="#DejaVuSerif-74" transform="translate(876.326172 0)"/>
     <use xlink:href="#DejaVuSerif-69" transform="translate(916.511719 0)"/>
     <use xlink:href="#DejaVuSerif-6f" transform="translate(948.494141 0)"/>
     <use xlink:href="#DejaVuSerif-6e" transform="translate(1008.699219 0)"/>
     <use xlink:href="#DejaVuSerif-3a" transform="translate(1073.103516 0)"/>
     <use xlink:href="#DejaVuSerif-20" transform="translate(1106.794922 0)"/>
     <use xlink:href="#DejaVuSerif-77" transform="translate(1138.582031 0)"/>
     <use xlink:href="#DejaVuSerif-61" transform="translate(1224.177734 0)"/>
     <use xlink:href="#DejaVuSerif-72" transform="translate(1283.796875 0)"/>
     <use xlink:href="#DejaVuSerif-70" transform="translate(1331.599609 0)"/>
     <use xlink:href="#DejaVuSerif-20" transform="translate(1395.613281 0)"/>
     <use xlink:href="#DejaVuSerif-73" transform="translate(1427.400391 0)"/>
     <use xlink:href="#DejaVuSerif-68" transform="translate(1478.71875 0)"/>
     <use xlink:href="#DejaVuSerif-75" transform="translate(1543.123047 0)"/>
     <use xlink:href="#DejaVuSerif-66" transform="translate(1607.527344 0)"/>
     <use xlink:href="#DejaVuSerif-66" transform="translate(1644.539062 0)"/>
     <use xlink:href="#DejaVuSerif-6c" transform="translate(1681.550781 0)"/>
     <use xlink:href="#DejaVuSerif-65" transform="translate(1713.533203 0)"/>
     <use xlink:href="#DejaVuSerif-20" transform="translate(1772.712891 0)"/>
     <use xlink:href="#DejaVuSerif-2192" transform="translate(1804.5 0)"/>
     <use xlink:href="#DejaVuSerif-20" transform="translate(1888.289062 0)"/>
     <use xlink:href="#DejaVuSerif-73" transform="translate(1920.076172 0)"/>
     <use xlink:href="#DejaVuSerif-68" transform="translate(1971.394531 0)"/>
     <use xlink:href="#DejaVuSerif-61" transform="translate(2035.798828 0)"/>
     <use xlink:href="#DejaVuSerif-72" transform="translate(2095.417969 0)"/>
     <use xlink:href="#DejaVuSerif-65" transform="translate(2143.220703 0)"/>
     <use xlink:href="#DejaVuSerif-64" transform="translate(2202.400391 0)"/>
     <use xlink:href="#DejaVuSerif-20" transform="translate(2266.414062 0)"/>
     <use xlink:href="#DejaVuSerif-6d" transform="translate(2298.201172 0)"/>
     <use xlink:href="#DejaVuSerif-65" transform="translate(2393.025391 0)"/>
     <use xlink:href="#DejaVuSerif-6d" transform="translate(2452.205078 0)"/>
     <use xlink:href="#DejaVuSerif-6f" transform="translate(2547.029297 0)"/>
     <use xlink:href="#DejaVuSerif-72" transform="translate(2607.234375 0)"/>
     <use xlink:href="#DejaVuSerif-79" transform="translate(2655.037109 0)"/>
     <use xlink:href="#DejaVuSerif-20" transform="translate(2711.53125 0)"/>
     <use xlink:href="#DejaVuSerif-2192" transform="translate(2743.318359 0)"/>
     <use xlink:href="#DejaVuSerif-20" transform="translate(2827.107422 0)"/>
     <use xlink:href="#DejaVuSerif-6f" transform="translate(2858.894531 0)"/>
     <use xlink:href="#DejaVuSerif-6e" transform="translate(2919.099609 0)"/>
     <use xlink:href="#DejaVuSerif-65" transform="translate(2983.503906 0)"/>
     <use xlink:href="#DejaVuSerif-20" transform="translate(3042.683594 0)"/>
     <use xlink:href="#DejaVuSerif-61" transform="translate(3074.470703 0)"/>
     <use xlink:href="#DejaVuSerif-74" transform="translate(3134.089844 0)"/>
     <use xlink:href="#DejaVuSerif-6f" transform="translate(3174.275391 0)"/>
     <use xlink:href="#DejaVuSerif-6d" transform="translate(3234.480469 0)"/>
     <use xlink:href="#DejaVuSerif-69" transform="translate(3329.304688 0)"/>
     <use xlink:href="#DejaVuSerif-63" transform="translate(3361.287109 0)"/>
    </g>
   </g>
  </g>
 </g>
 <defs>
  <clipPath id="p5d38080d38">
   <rect x="35.471562" y="32.197656" width="529.2" height="415.8"/>
  </clipPath>
 </defs>
</svg>
